<?xml version="1.0" encoding="utf-8"?>
<!-- Generator: Adobe Illustrator 27.7.0, SVG Export Plug-In . SVG Version: 6.00 Build 0)  -->
<svg version="1.1" id="Layer_1" xmlns="http://www.w3.org/2000/svg" xmlns:xlink="http://www.w3.org/1999/xlink" x="0px" y="0px"
	 viewBox="0 0 314 217" style="enable-background:new 0 0 314 217;" xml:space="preserve">
<style type="text/css">
	.st0{fill:#D8CCAE;}
	.st1{fill:#191815;}
	.st2{fill:#1E1E1E;}
	.st3{fill:#000B00;}
	.st4{fill:#2B2923;stroke:#000000;stroke-width:2;stroke-miterlimit:10;}
	.st5{fill:#191919;}
	.st6{fill:#0A0000;}
	.st7{fill:#E0E0E0;}
	.st8{fill:#FFFFFF;stroke:#32461E;stroke-miterlimit:10;}
	.st9{fill:#DFDEDE;}
	.st10{fill:#191714;}
	.st11{fill:#FFFFFF;}
	.st12{fill:#A4A1A0;}
	.st13{fill:#0D0205;}
	.st14{fill:#0C7465;}
	.st15{fill:#33ECD1;}
	.st16{fill:#00AD94;}
	.st17{fill:#F30000;stroke:#000000;stroke-width:2;stroke-miterlimit:10;}
	.st18{fill:#B60000;}
	.st19{fill:#000104;}
	.st20{fill:#2B2923;stroke:#000000;stroke-miterlimit:10;}
	.st21{stroke:#181714;stroke-miterlimit:10;}
	.st22{fill:#D9CDAF;}
	.st23{fill:#F30000;}
	.st24{fill:#B000FF;}
	.st25{fill:#000700;}
	.st26{fill:#000200;}
	.st27{fill:#2D2D2D;stroke:#000000;stroke-miterlimit:10;}
	.st28{fill:none;stroke:#000000;stroke-miterlimit:10;}
	.st29{fill:#141414;}
	.st30{fill:#D16F00;}
	.st31{fill:#181714;}
	.st32{fill:#030100;}
	.st33{fill:#262626;}
	.st34{fill:#FF6161;}
</style>
<path class="st0" d="M234.37,230.72"/>
<path class="st1" d="M264.62,250.93"/>
<path class="st2" d="M36.57,248.72"/>
<path class="st3" d="M130.98,39.01c0,0,7.41-8.46,3.54-20.35l-1.63,1.09c0,0,1.11-5.47-2.76-10.24l-0.72,2.13
	c0,0-7.48-6.15-17.34-1.99c0.33-1.18,0.61-2.54,0.61-2.54s-14.37,7.38-11.29,14.82c2.57,0.73,5.22,1.73,7.63,2.84
	c4.91,2.26,8.12,7.08,8.32,12.48l0,0l2.43-1.81c0,0,2.46,4.65,1.85,6.12"/>
<path class="st3" d="M151.82,68.05c0,0,0.24-1.41,3.37-2.37c-6.36-9.69-19.44-10.99-19.44-10.99"/>
<g>
	<path d="M150.87,68.55c0,0,5-10,28-11c-4,6-4,6-4,6s7-1,11,1c2-3,0-8,25-12s34,5,34,5s14,50-21,54s-35,2-35,2s-4,16-29,13
		c-25-3-23-13-23-13S127.87,90.55,150.87,68.55z"/>
	<path class="st4" d="M152.87,73.55"/>
	<path class="st5" d="M167.37,65.05c0,0-11,0-22,21c0-3,0-6.56,0-6.56s-10,19.91,0,29.23c-4-2.67-7-6.67-7-6.67s-3,18,20,17
		c22-5,24-10,24-10l7-6c0,0-1,7,3,7s44,0,48-15s5-33-7-36s-31-4-37,1s-6.41,4.96-5.7,10.98c-3.3-2.98-4.3-2.98-4.3-2.98l-1,4l-2-5
		c0,0-8-3-16,4c-1,0.67-2.37,2.5-2.37,2.5S165.37,69.05,167.37,65.05z"/>
</g>
<path class="st6" d="M63.37,104.72c0,0-21,12-23,26c5-3,4-2,4-2s-2,1-1,14s11,70,67,52c25-15,34.5-20.5,34.5-20.5
	S241.87,71.22,63.37,104.72z"/>
<path class="st5" d="M48.11,123.22c0,0,6.74-8.5,11.05-7.5s93.61-7,93.61-7s11.44,6.15,10.56,18.07
	c-0.88,11.93-12.18,35.93-12.18,35.93l-28.01,17.22l-41.31,5.32l-30.19-32.53c0,0-6.03-15.08-2.47-22.04
	c3.55-6.96,5.72-7.46,5.72-7.46S52.13,121.72,48.11,123.22z"/>
<path class="st7" d="M94.25,126.3c0,0,50.9-21.08,58.51-18.07c7.61,3,12.44,7,12.52,16c0.09,9-8.67,32.64-16.29,39.32
	c-7.62,6.68-18.19,13.48-18.19,13.48l-14.93,4.7h-27l-20.63-13.65L94.25,126.3z"/>
<g>
	<path class="st3" d="M119.37,128.72c0,0,11,0,24-15c8.15-10.19,12.15-25.45,13.87-34.19c0.73-3.68-2.06-11.11-2.2-11.33
		c-0.35-0.54-0.75-1.06-1.17-1.56c-2.52-2.93-5.96-6.29-10-8.55c-0.31-0.17-0.63-0.34-0.95-0.5c-0.29-0.14-0.58-0.28-0.87-0.42
		c-0.51-0.23-1.02-0.44-1.54-0.63c-0.37-0.13-0.73-0.25-1.11-0.36c-0.67-0.19-1.34-0.35-2.03-0.47c0,0-3-17-6-22c0,0-9-23-35-22l2-4
		c0,0-10-1-17,2c0-2,2-5,2-5s-6,0-20,5s-25,14-30,22s-11,24-11,24l-2,14l4-4c0,0-3.1,21,1.95,28c4.05-8,6.05-8,6.05-8s3,26,22,34
		l8.25,4.57c7.16,2.95,14.54,5.3,22.08,7.04l-0.33-1.61"/>
	<path class="st8" d="M138.33,59.46c-1.61-0.81-3.15-1.51-4.49-2.1c-0.53-0.23-1.02-0.44-1.48-0.64c-4-49-44-40-44-40s-0.07-1,2-4
		c-6,0-17,4.91-17,4.91s0-1.91,1-5.91c-37,8-43,42-43,42c-4,2-3,29-3,29s3-3,9-5c-0.85,10.26,3,26,15.61,32.98
		c0.32,0.18,0.52,0.5,0.78,0.75l-0.07,0c0,0,0.29,0.26,0.85,0.69c0.94,0.79,1.93,1.5,2.98,2.13c4.82,3.18,15.02,9.29,26.85,10.46
		c-0.78-1.39-2.66-3.4-3-4l3.88,0.63c12.73,2.66,25.85,2.84,38.64,0.46c0.16-0.03,0.32-0.06,0.48-0.09c18-5,27-31,29-43
		C154.91,69.5,145.81,63.23,138.33,59.46z"/>
	<g>
		<path class="st9" d="M63.16,54.51c-1.18,3.57-2.19,11.71,8.44,20c2.63,2.05,5.92,3.23,9.4,3.21c4.49-0.03,10.32-1.99,18.9-12.47
			c0.92-1.12,0.42-2.71-0.96-3.09l-33.13-9.04C64.71,52.82,63.52,53.45,63.16,54.51z"/>
		<path class="st10" d="M62.4,53.44c-1.01,3.35-1.76,11.01,8.27,19.07c2.47,1.99,5.55,3.18,8.76,3.23
			c4.15,0.07,9.5-1.65,17.19-11.36c0.82-1.04,0.33-2.55-0.96-2.94l-30.85-9.26C63.79,51.88,62.7,52.44,62.4,53.44z"/>
		<path class="st9" d="M89.4,63.91c-0.8,1.01-1.53,1.78-2.2,2.35c-1.55,1.33-2.77,1.62-3.78,1.6c-1.12-0.02-2.19-0.43-3.04-1.12
			c-3.49-2.8-3.23-5.46-2.88-6.63c0.11-0.35,0.49-0.54,0.84-0.43l0.97,0.29l9.75,2.93C89.51,63.02,89.69,63.55,89.4,63.91z"/>
		<path class="st11" d="M89.4,63.91c-0.8,1.01-1.53,1.78-2.2,2.35c-0.66,0.26-1.25,0.34-1.78,0.33c-1.12-0.02-2.19-0.43-3.04-1.12
			c-2.62-2.1-3.12-4.13-3.06-5.5l9.75,2.93C89.51,63.02,89.69,63.55,89.4,63.91z"/>
		<path class="st9" d="M99.86,56.72l-15.6-7.93l12.64,3.94c0.66,0.2,1.2,0.65,1.52,1.25L99.86,56.72L99.86,56.72z"/>
		<path class="st12" d="M82.96,48.11l12.86,3.2c0.67,0.17,1.24,0.58,1.59,1.16l1.62,2.65L82.96,48.11z"/>
	</g>
	<g>
		<path class="st9" d="M125.99,40.8c2.45,1.32,7.03,5.05,4.78,13.75c-0.55,2.15-1.93,4.14-4,5.59c-2.68,1.87-7.09,3.33-17.3,1.6
			c-1.09-0.18-1.58-1.2-0.94-1.98l15.21-18.55C124.24,40.59,125.25,40.4,125.99,40.8z"/>
		<path class="st10" d="M125.91,39.93c2.24,1.28,6.43,4.87,4.43,13.2c-0.49,2.06-1.73,3.96-3.61,5.34
			c-2.43,1.78-6.44,3.15-15.75,1.44c-0.99-0.18-1.44-1.16-0.87-1.9l13.75-17.7C124.32,39.72,125.24,39.54,125.91,39.93z"/>
		<path class="st9" d="M115.03,56.63c0.97,0.18,1.78,0.26,2.45,0.27c1.57,0.02,2.43-0.34,3.02-0.77c0.65-0.48,1.08-1.14,1.26-1.85
			c0.69-2.9-0.76-4.14-1.54-4.59c-0.23-0.13-0.55-0.07-0.71,0.13l-0.43,0.56l-4.35,5.6C114.53,56.22,114.68,56.56,115.03,56.63z"/>
		<path class="st11" d="M115.03,56.63c0.97,0.18,1.78,0.26,2.45,0.27c0.52-0.14,0.91-0.35,1.22-0.58c0.65-0.48,1.08-1.14,1.26-1.85
			c0.52-2.17-0.17-3.42-0.87-4.09l-4.35,5.6C114.53,56.22,114.68,56.56,115.03,56.63z"/>
		<path class="st9" d="M105.31,57.36l5.37-10.61l-5.56,7.33c-0.29,0.38-0.39,0.84-0.29,1.27L105.31,57.36L105.31,57.36z"/>
		<path class="st12" d="M111.12,45.86l-6.06,7.04c-0.31,0.37-0.45,0.82-0.38,1.26l0.34,2.03L111.12,45.86z"/>
	</g>
	<g>
		<path class="st13" d="M133.78,47.6c-0.49,0.45-0.7,1.14-0.45,1.75c1.41,3.45,2.75,12.33-3.5,15.01c-1.78,0.76-4.54,2.11-7.66,3.69
			c-1.3,0.66-2.86,0.57-4.07-0.24c-2.48-1.67-4.92-3.7-5.37-1.75l-2.37,7.02c-0.31,0.9-0.95,1.66-1.79,2.11
			c-4.44,2.37-7.74,4.17-7.74,4.17l-18,9c0,0-7.04,1.4-11.53-0.8c-3.8-1.86-7.47-16.2-7.47-16.2h-2c0,0-4.45,0.64-6-4.11
			c-1.53-4.69,0-6.89,0-6.89s32.42-22.77,76.08-21.36c1.8,0.06,3.26,1.43,3.44,3.22C135.61,44.74,135.42,46.11,133.78,47.6z"/>
		<g>
			<path class="st14" d="M68.8,58.86c0,0,32-17,59-15c1,5,2,13,2,13l-1,2.75l-7,3.25l-7.5-1.82l-1.5-2.18l-4,3l-5,10l-19.65,9.03
				l-6.35-0.03l-4.45,0.03l-4-6.62l-2.12-10.91L68.8,58.86z"/>
			<polygon class="st15" points="71.3,73.36 83.22,52.4 101.22,47.21 84.15,80.89 77.3,83.36 71.99,80.62 			"/>
			<polygon class="st16" points="104.97,45.82 89.99,78.25 98.52,73.66 110.65,45.15 			"/>
			<path class="st17" d="M131.98,44.99c0.65-0.93,0.6-1.98-0.68-2.62c-39.5-2.5-65.14,14.95-71.67,19.13
				c-0.93,0.59-1.98,1.52-1.8,2.61c0.97,5.76,5.97,2.76,5.97,2.76c2-1,2,1,2,1l4.39,13.18c0.1,0.29,0.22,0.57,0.38,0.84
				c0.74,1.25,3.15,4.27,8.73,3.48c3.35-0.48,14.94-6,26.34-11.84c0.01-0.01,0.02-0.01,0.03-0.02c0.98-0.51,1.64-1.46,1.8-2.56
				c0.27-1.83,3.39-7.73,4.19-9.5c0.86-1.91,0.93-2.28,2.37-0.7c0.18,0.19,0.37,0.38,0.57,0.54l3.59,2.82
				c1.29,1.02,3.07,1.16,4.5,0.36c2.81-1.55,5.12-2.87,6.65-3.79c1.41-0.86,2.31-2.36,2.36-4.01c0.06-2.23-0.2-5.26-0.57-7.46
				C130.9,47.74,131.14,46.2,131.98,44.99z M108.87,58.22c-2.55,4.25-4.42,8.23-4.93,9.34c-0.14,0.31-0.31,0.59-0.52,0.86
				c-0.54,0.68-1.73,1.94-4.14,3.45c-1.88,1.18-4.5,2.52-8.13,3.86c-0.11,0.04-0.23,0.09-0.35,0.13c-1.95,0.71-3.62,1.32-5.04,1.86
				c-3.59,1.34-5.63,2.14-6.74,2.61c-1.39,0.58-3,0.25-4.04-0.84c-1.04-1.09-2.28-2.99-3.57-6.33c-0.4-1.05-0.81-2.25-1.22-3.61
				c-0.55-1.79-0.86-3.65-0.83-5.52c0.01-0.69,0.05-1.25,0.1-1.7c0.11-0.87,0.6-1.65,1.34-2.12c1.73-1.09,5.64-3.4,11.31-5.86
				c4.94-2.14,11.22-4.39,18.55-6.05c1.14-0.25,2.3-0.5,3.49-0.72c1.89-0.36,3.84-0.68,5.85-0.93c4.84-0.63,10.02-0.95,15.47-0.8
				c0.2,0.01,0.38,0.13,0.46,0.32c1.81,4.3,2.48,7.43,2.73,9.15c0.13,0.95-0.26,1.88-1.01,2.47c-1.71,1.34-3.21,2.14-5.63,2.74
				c-0.66,0.16-1.3,0.42-1.97,0.54c-1.83,0.35-5.19-3.85-5.19-3.85S111.87,53.22,108.87,58.22z"/>
		</g>
		<path class="st18" d="M60.83,63.64l4.68-2.88v3.37l-3.22,1.55C62.29,65.68,59.8,66.81,60.83,63.64z"/>
		<path class="st18" d="M127.79,44.12l0.88,3.34c0,0,1.68-1.78,1.68-3.13S127.79,44.12,127.79,44.12z"/>
	</g>
	<g>
		<path class="st19" d="M103.11,75.92c-1.21,1.29-0.63,3.37,1.07,3.9c4.42,1.4,14.25,4.24,17.63,3.01
			c3.25-1.18,7.78-9.79,9.94-14.23c0.7-1.44-0.16-3.26-1.78-3.4c-3.46-0.3-8.7-0.09-11.36,2.65c-0.34,0.35-0.84,0.5-1.33,0.53
			C114.29,68.63,106.29,72.56,103.11,75.92z"/>
		<path class="st20" d="M106.62,77.17c0,0,6.08-5.47,9.21-3.23c3.13,2.24,1.98,5.63,1.98,5.63L106.62,77.17z"/>
		<path class="st20" d="M129.08,68.41l-3.22,6.7C125.86,75.1,124.27,70.48,129.08,68.41z"/>
		<path class="st20" d="M167.32,42.93"/>
	</g>
	<path class="st11" d="M135.51,58.1c0,0,7.86-0.38,12.86,3.62l2.78,2.57c0,0-4.82-1.49-5.78-0.57c3.04-0.09,8.34,2.76,8.17,11.38"/>
	<path class="st21" d="M137.51,68.43c0,0,11.08,7.89,1.6,16.1c-7.42,5.21-9.18,5.66-10.85,5.26c-0.38,3.4-10.64,12.16-14.13,12.27
		c-2.9,0.09-11.88-0.17-17.01-0.74c-1.57-0.17-3.15-0.16-4.73-0.08c-3.13,0.16-6.51-1-7.11-1.64c-0.88-0.93-0.74-1.05-0.74-1.05
		s-2.21-3.15,2.24-4.7l-0.72,1.51c-0.37,0.78-0.5,1.67-0.27,2.51c0.23,0.82,0.78,1.61,2.08,1.48c1.3-0.13,2.36-0.09,3.1-0.02
		c1.29,0.12,2.59,0.14,3.89,0.13c2.92-0.03,7.27-0.06,8.37,0.07c2.06,0.24,5.92,0.54,8.51,0.29c2.59-0.25,19.81-5.61,11.55-17.05
		c2.97,2.6,4.42,4.28,4.42,4.28s3.33,0.8,7.04-1.81C138.47,82.63,144.97,78.07,137.51,68.43z"/>
	<path class="st7" d="M122.1,110.17c0,0-32.27,12.68-55.42-11.64l3.85,12.68c0,0-23.58-9.99-23.78-27.95
		c-0.05-4.35-0.87-8.6-1.94-12.81c-0.58-2.28,3.56-0.73,3.56-0.73s-5.53-23.09,13.81-35.3C48.53,24.21,31.53,54.21,31.53,54.21
		s-7.16,25.51-3.16,28.51c5-3,7-4,7-4s-2.5,37.5,51,47c-3.5-3.5-3-5-3-5s21.9,6.6,37.28,2.3s9.19-16.11,9.19-16.11L122.1,110.17z"/>
</g>
<path class="st22" d="M228.37-119.28"/>
<g>
	<path d="M208.12,19.66l13.48,87.58c0,0,41.1,7.64,68.92-1.05c-1.29-20.7,4.71-93.22,4.71-93.22S250.48,30.08,208.12,19.66z"/>
	<path class="st23" d="M215.19,26.37l11.37,73.88c0,0,34.66,6.45,58.13-0.88c-1.09-17.46,3.97-78.63,3.97-78.63
		s-27.42,10.48-57.65,8.13c-2.1-0.16-4.21-0.39-6.33-0.68C221.53,27.74,218.35,27.15,215.19,26.37z"/>
	<path class="st24" d="M223.66-0.35"/>
	<ellipse transform="matrix(0.9975 -0.0712 0.0712 0.9975 -0.4614 17.9293)" cx="251.11" cy="15.43" rx="46.52" ry="8.49"/>
	<path class="st11" d="M213.08,16.79c0,0,45.57-10.83,76.58-4.04c-3.41,3.02-12.86,8.38-35.21,9.67
		C231.9,24.2,213.62,21.18,213.08,16.79z"/>
	<path class="st18" d="M237.85,63.72c0,0,1.65,7.58,2.6,11.2c0.95,3.62,3.44,17.12,3.44,17.12l40.95-0.83l-0.11,9.21
		c0,0-20.76,6.25-57.77,1.26c-2.14-10.31-10.46-50.06-10.46-50.06s16.56,2.14,20.26,1.64C237.78,61.68,237.85,63.72,237.85,63.72z"
		/>
</g>
<path class="st22" d="M252.75,77.37"/>
<g>
	<path class="st25" d="M207.12,39.72c0,0,24-4,30,5c2,6,4,15-4,19c-8,2-17.95,0-17.95,0l1.2,8c0,0-9.73,1-11.99,0
		c-2.26-1-10.26-5-7.26-21C199.12,41.72,207.12,39.72,207.12,39.72z"/>
	<path class="st5" d="M221.62,44.22h-10.96c0,0-9.04,1-9.04,9s1.25,16,10.25,15c2-2-1.69-12.72-1.69-12.72s5.44,5.72,12.44,5.72
		s11-3,11-3s5-7-1-12C226.62,43.22,221.62,44.22,221.62,44.22z"/>
</g>
<g>
	<path class="st26" d="M292.18,33.22c0,0-7.61-3.17-19.3,3.12c-7.07,3.8-12.37,10.38-13.94,18.26c-1.36,6.85,0.36,13.25,12.24,12.63
		c-6,0-8-1-9,3s-2,11,5,13c-3,3-6,11,0,16c-2,3-4,7,2,10c6,1,28-7,28-7s12-6,4-17c0,0-4-5-8-5c5-1,12.9-3.71,14.95-9.36
		c2.05-5.64,2.05-13.64-6.95-16.64c1-4,6-10-1-17L292.18,33.22z"/>
	<path class="st5" d="M274.18,63.22c0,0,9.56,0,21.39-10.53c2.02-1.8,3.4-4.26,3.65-6.95c0.22-2.39-0.47-4.86-4.21-6.79
		c-2.58-1.34-5.52-1.81-8.42-1.6c-5.6,0.41-12.33,1.98-16.41,6.87c0,0-6,5-6,9c0,3.78-2.62,10.25,4.26,10.09l3.91-0.09H274.18z"/>
	<path class="st5" d="M297.18,57.22c0,0-11,11-29,12c-0.75,1.12-1.78,2.81-2.2,4.54c-0.17,0.72-0.24,1.44-0.13,2.13
		c0.32,2.08,2.18,3.86,7.33,4.33c9.8,0,22.58-3.74,28.16-7.84c1.65-1.21,2.85-2.98,3.18-5c0.19-1.18,0.13-2.58-0.53-4.07
		C303.09,61.33,301.11,59.19,297.18,57.22z"/>
	<path class="st5" d="M291.67,83.56c-0.89-0.25-1.83-0.28-2.75-0.13c-3.19,0.51-11.53,1.79-14.74,1.79c-4,0-5,2-5,2
		s-2.34,1.95-2.15,4.15c0.12,1.32,1.15,2.72,4.15,3.85c5.43,2.04,12.24,2.24,16.05,2.16c1.84-0.04,3.64-0.44,5.33-1.17v0
		c5.7-2.46,5.35-10.81-0.61-12.57C291.86,83.61,291.76,83.59,291.67,83.56z"/>
	<path class="st27" d="M270.18,101.22c0,0,5,3,16,1c-4.57,2.28-7.83,3.59-9.79,4.29c-1.88,0.67-3.99,0.59-5.71-0.41
		C269.18,105.22,268.18,103.72,270.18,101.22z"/>
	<path class="st28" d="M290.18,97.24"/>
	<path class="st29" d="M263.72,57.78c0,0,18.4,8.15,35.54-13.54c0.13,5.08-3.82,10.38-10.59,13.66c-0.61,0.3-1.21,0.63-1.82,0.93
		c-5.45,2.72-7.9,3.38-7.9,3.38S261.04,67.01,263.72,57.78z"/>
</g>
<path class="st30" d="M64.52,107.29"/>
<path class="st31" d="M114.37,81.02"/>
<path class="st31" d="M40.78,58.55"/>
<path class="st31" d="M252.62,17.93"/>
<path class="st31" d="M61.35,93.1"/>
<g>
	<path class="st32" d="M53.97,145.25C53.97,145.25,53.97,145.25,53.97,145.25c-0.02-0.04-9.6-25.26-32.96-18.21
		c-23.35,7.04-9.07,27.43-9.04,27.47c0,0,0,0,0,0c0.02,0.01,4.06,4.81,9.82,5.68c4.43,0.67,8.65,4.6,9.32,9.03
		c0.42,2.77,0.42,5.1,1.16,8.38c1.22,5.41-0.38,19.42,22.64,30.21c2.57,0.77,6.71,2.02,9.28,2.79c14.98,2.3,21.82,1.14,24.17,0.48
		c0.97-0.27,1.93-0.54,2.91-0.79c4.28-1.06,14.77-4.09,20.78-9.6c0,0,0,0,0,0c6.94-5.09,17.66-12.08,27.46-13.07c0,0,0,0,0,0
		c7.84-0.88,15.86-9.89,12.89-19.97c0,0,0,0,0,0c-0.06-0.08-0.12-0.16-0.18-0.23c-5.24-6.64-13.41-10.34-21.84-9.74
		c-4.9,0.35-10.41,1.92-15.62,6c0,0,0,0,0,0c-0.02-0.01-7.88-4.68-13.23-1.25c-0.01,0.01-0.02,0-0.01-0.01
		c1.51-1.6,0.54-4.99-3.49-5.31c-0.01,0-0.02-0.02-0.01-0.02c1.34-0.58,7.26,1.06,15.71-7.52c0,0,0,0,0,0
		c2.23-5.49,6.92-16.58-15.87-24.08c0,0,0,0,0,0c-12.65,0.05-23.4,0.72-37.88,15.96c0,0,0,0,0,0
		C55.57,145.23,53.98,145.25,53.97,145.25z"/>
	<path class="st2" d="M148.36,171.83c-0.05,7.38-7.08,11.03-12.91,12.04c-0.67,0.11-1.32,0.19-1.94,0.24
		c-0.73,0.06-1.45,0.01-2.18-0.05c-5.49-0.43-9.87,3.16-18.32,8.19c-0.24,0.14-0.46,0.3-0.67,0.48c-5.01,4.28-10.06,7.56-16.65,10.3
		c-12.53,5.2-26.63,5.66-39.13,0.41c-19.97-8.36-19.36-23.7-19.88-29.66c0.08-1.05,0.05-2.09-0.06-3.09
		c-0.72-6.39-4.9-11.88-10.73-14.56c-0.9-0.42-1.93-0.63-3.02-0.85c-1.46-0.3-3.02-0.64-4.5-1.56c-1.14-0.71-2.14-1.75-3.01-2.96
		c-1.53-2.15-2.6-4.84-3.12-7.18c-2.2-9.86,10.02-12.65,16.19-13.05c1.01-0.06,2.02-0.01,3.01,0.19
		c7.48,1.52,12.62,7.86,15.66,13.04c0.9,1.54,1.62,2.98,2.16,4.16c0.74,1.59,2.33,2.58,4.04,2.58c0.22,0,0.44-0.02,0.66-0.05
		c0.64-0.09,1.26-0.33,1.8-0.68l4.22-2.76c0.21-0.13,0.4-0.28,0.58-0.44c1.36-1.26,7.87-7.15,15.89-12.81
		c3.45-2.44,7.38-4.17,11.53-4.92c12.11-2.19,19.31,3.67,23.2,8.92c2.19,2.96,1.48,3.52,1.19,4.96c-2.71,13.29-19.16,11.23-22,11.88
		c-3.09,0.7-10.9,5.26-15,8.12c7.26-4.46,21.65-5.93,22.61-2.46c0.96,3.48-0.61,5.06-5.34,9.82c5.05-4.13,12.94-7.32,16.43-5.12
		c3.48,2.2,0.34,6.96-1.23,10.13c14.79-19.35,29.67-13.4,29.67-13.4s6.7,2.2,10.15,7.69C148.13,170.11,148.37,170.97,148.36,171.83z
		"/>
	<path class="st29" d="M135.45,183.87c-0.67,0.11-1.32,0.19-1.94,0.24c-0.73,0.06-1.45,0.01-2.18-0.05
		c-5.49-0.43-9.87,3.16-18.32,8.19c-0.24,0.14-0.46,0.3-0.67,0.48c-5.01,4.28-10.06,7.56-16.65,10.3
		c-12.53,5.2-26.63,5.66-39.13,0.41c-19.97-8.36-19.36-23.7-19.88-29.66c0.08-1.05,0.05-2.09-0.06-3.09
		c-0.72-6.39-4.9-11.88-10.73-14.56c-0.9-0.42-1.93-0.63-3.02-0.85c3.68-0.59,22.46-2.74,30.41,12.67
		c3.2,6.2,9.14,22.38,16.09,21.77c2.23-0.2,4.07-2.76,6-3c6.57-0.82,5.06,3.08,11,6c6.45,3.17,24.92-6.8,33.36-9.33
		C126.23,181.44,131.53,182.28,135.45,183.87z"/>
	<path class="st33" d="M47.1,143.76c0,0-16.73-6.04-20.73-2.04s-5,11.09-11,9.04h-0.01c-1.53-2.15-2.6-4.84-3.12-7.18
		c-2.2-9.86,10.02-12.65,16.19-13.05c1.01-0.06,2.02-0.01,3.01,0.19C38.92,132.24,44.06,138.58,47.1,143.76z"/>
	<path class="st29" d="M53.3,150.5"/>
</g>
<path class="st3" d="M24.37,74.72c0,0-16-12-14.98-32.01l2.98,1.01c0,0-4-8,0-17l2,3c0,0,9-12.64,26-10.32c-1-1.68-2-3.68-2-3.68
	s25.31,5.42,23.65,18.21c-3.68,2.21-7.35,4.85-10.61,7.57c-6.66,5.54-9.61,14.35-7.67,22.79l0,0l-4.51-1.79c0,0-3.86,4.22-0.3,10.24
	"/>
<path class="st33" d="M52.38,118.79c0,0-3.53,2.94-4.27,4.44c1.26-0.5,5.26-1.5,6.76,0c-3.5,2.5-7.14,9.04-6.82,12.27
	c2.32,2.23,5.51,8.29,5.92,9.76c0.4,1.47-0.1-18.39,8.65-20.96C61.37,123.72,52.38,118.79,52.38,118.79z"/>
<path class="st33" d="M157.25,79.53l4.91-4.43v5.15c0,0,13.63-10.74,18.43-9.63c4.79,1.1,4.79,2.1,4.79,2.1s1-0.35-2-5.67
	c-9-1.33-11.74,0.33-18.37,6.5c0.37-1.83,0.37-6.17,2.37-8.5c-6,0.67-11.3,6.12-11.3,6.12S158.12,76.34,157.25,79.53z"/>
<polygon class="st29" points="216.37,71.72 211.83,99.73 193.86,98.04 187.9,100.68 183.84,109.17 214.02,113.67 223.68,107.35 "/>
<path class="st33" d="M229.41,44.94c0,0-14.41-5.26-23.23,0.76c-8.81,6.02-3.79,15.67-3.79,15.67s1-9.68,6.49-12.16
	c-0.51,2.52,0.97,2.32,0.97,2.32S210.45,43.15,229.41,44.94z"/>
<path class="st29" d="M288.44,78.09c7.61-2.4,12.9-5.71,12.9-5.71s4.03-2.66,3.2-7.12c-2.3,1.92-4.58,3.53-6.83,4.89
	c-1.17-1.53-1.99-3.43-1.99-3.43l-4.42,3.29c0,0-4.98,5.04-20.7,5.87c-1.74,0.09-2.88,0.2-3.53,0.31c-0.8-0.17-1.23-0.31-1.23-0.31
	s0.52,5.83,12.93,4.33c2.95-0.36,5.76-0.99,8.35-1.74"/>
<path class="st29" d="M277.21,93.11l-9.94-0.8c0,0-2.63,2.76,13.23,5.09c15.86,2.33,16.13-6.68,16.13-6.68s-3.86,3.68-8.06,3.85
	c-4.2,0.16-5.56,0.1-5.56,0.1l0.35-2.94l0,0C281.51,92.8,279.36,93.28,277.21,93.11z"/>
<path class="st7" d="M109.27,27.3c0,0-11.84-6.96-25.8-7.06c5.42,3.24,5.29,5.26,5.29,5.26s-12.19-4.72-22.13-3.73
	c9.24,2.16,25.1,10.93,25.1,10.93s4.99-3.72,1.97-7.64c6.4,0.32,20.87,5.22,20.87,5.22L109.27,27.3z"/>
<path class="st3" d="M54.37,33.72c0,0-20.57,12.79-15.78,21.39"/>
<path class="st2" d="M43.37,25.72v-3.86c0,0,17.05,6.19,14,9.86c-2.46,2.97-24.59,15.83-17,27c-5.41-3.83-4.65-3.61-4.65-3.61
	s-6.45,7.36-3.9,11.48c-0.38,0.11-10.61,0.51-15.47-10.14c-1.47-3.22-2.02-6.79-1.83-10.33c0.21-3.82,0.55-9.07,0.55-9.07l3.54,1.78
	c0,0-4.24-5.11,6.76-12.11C25.37,26.72,37.37,18.72,43.37,25.72z"/>
<path class="st29" d="M109.86,13.58c0,0,18.51,5.14,21.51,20.14c1-3,1.36-10.07,1.36-10.07l-2.65,1.26c0,0,0.72-7.33,0-9.26
	c-1.72,1.07-2.1,1.33-2.1,1.33s1.15-2.58-3.06-4.83c-4.55-2.43-11.68-0.43-11.68-0.43S110.34,12.44,109.86,13.58z"/>
<path class="st2" d="M24.57,15.72"/>
<path class="st33" d="M14.49,47.82l3.96,4.24c0,0-1.92-8.93,0-9.13c0.92,2.79,4.35,1.49,4.35,1.49s-3.43-9.7,0.57-12.7s11-8,20-6
	c-2-1-2.88-5.84-14.44-0.92c-9.56,4.92-12.07,8.15-10.32,14.03c-2.24-1.11-3.54-1.78-3.54-1.78L14.49,47.82z"/>
<path class="st7" d="M220.33,20.38c0,0,33.19-8.22,61.18-4C271.2,19.61,253.31,25.16,220.33,20.38z"/>
<path class="st34" d="M265.34,33.61c-14.13,6.71-17.1,33.26-17.1,33.26l-4.89-31.08C243.35,35.8,257.65,37.11,265.34,33.61z"/>
</svg>
