<?xml version="1.0" encoding="utf-8"?>
<!-- Generator: Adobe Illustrator 27.7.0, SVG Export Plug-In . SVG Version: 6.00 Build 0)  -->
<svg version="1.1" id="Layer_1" xmlns="http://www.w3.org/2000/svg" xmlns:xlink="http://www.w3.org/1999/xlink" x="0px" y="0px"
	 viewBox="0 0 49.68 52.94" style="enable-background:new 0 0 49.68 52.94;" xml:space="preserve">
<style type="text/css">
	.st0{fill:#636464;}
	.st1{fill:#FFFFFF;}
	.st2{fill:#000002;}
</style>
<g>
	<path class="st0" d="M49.65,7.09c-0.03-0.58-0.06-0.93-0.12-1.85c-0.03-0.52-0.05-0.94-0.06-1.23c-0.61-0.14-1.44-0.34-2.42-0.55
		c-1.24-0.28-3.6-0.79-6.55-1.33c-2.58-0.47-4.2-0.76-6.54-1.03c-0.79-0.09-2.99-0.33-5.84-0.45c-0.67-0.03-1.99-0.08-3.68-0.07
		c-1.72,0-3.04,0.05-3.51,0.07C20.21,0.69,19,0.74,17.48,0.88c-1,0.09-1.96,0.2-2.17,0.23c-0.81,0.1-0.91,0.12-1.8,0.22
		c-0.5,0.06-0.74,0.08-1.19,0.14c-0.47,0.07-0.57,0.1-1.18,0.2c-0.7,0.11-0.73,0.1-1.33,0.2C9.13,1.98,8.6,2.09,8.18,2.17
		c-0.54,0.11-0.54,0.12-1.6,0.35C5.82,2.69,5.84,2.68,5.22,2.81C4.23,3.02,3.57,3.18,3.41,3.22C3.07,3.3,2.76,3.37,2.34,3.48
		C1.85,3.6,1.61,3.67,0.98,3.83C0.65,3.92,0.37,3.99,0.2,4.03c0,0-0.06,0.83-0.11,1.57C0.08,5.85,0.05,6.3,0.03,6.86
		C0,7.64,0,8.23,0,8.68c0,0.95,0.02,1.65,0.04,2.36c0.04,1.34,0.06,2.03,0.15,2.8c0.02,0.15,0.06,0.55,0.12,1.02
		c0.08,0.62,0.09,0.65,0.16,1.21c0.11,0.85,0.11,0.98,0.19,1.54c0.04,0.25,0.07,0.42,0.16,0.95c0.28,1.56,0.42,2.35,0.53,2.82
		c0.08,0.34,0.18,0.7,0.38,1.43c0.08,0.28,0.35,1.25,0.77,2.58c0.26,0.82,0.38,1.23,0.56,1.72c0.31,0.87,0.61,1.58,0.83,2.07
		c0.28,0.66,0.56,1.33,0.83,2l0.62,1.21H5.34c0.26,0.5,0.53,1.01,0.79,1.51c0.2,0.36,0.48,0.88,0.85,1.49
		c1.7,2.86,3.31,4.91,4.05,5.81c0.81,0.99,1.88,2.22,3.23,3.55l1.46,1.34c0.18,0.17,0.51,0.48,0.73,0.67
		c1.02,0.89,1.3,1.18,1.87,1.66c0.45,0.38,0.91,0.73,1.83,1.41c0.86,0.64,1.47,1.06,2.21,1.58c0.79,0.55,1.28,0.88,1.9,1.24
		c0.22,0.13,0.4,0.24,0.53,0.31c0.15-0.07,0.38-0.18,0.64-0.31c0.79-0.4,1.36-0.82,3-2c0.5-0.36,1.41-1.03,2.49-1.9
		c0.67-0.54,1.19-0.99,1.6-1.34c0.67-0.57,1.22-1.06,1.64-1.44l1.25-1.27c0.83-0.9,1.67-1.79,2.5-2.69l2-2.5
		c0.57-0.82,1.14-1.63,1.71-2.45l1.23-1.95c0.29-0.58,0.61-1.16,0.95-1.76c0.17-0.31,0.35-0.61,0.52-0.9l0.59-1.25
		c0.17-0.37,0.4-0.88,0.67-1.51c0.29-0.68,1.12-2.7,1.94-5.47c0.82-2.77,1.22-4.93,1.33-5.53c0.11-0.61,0.49-2.77,0.69-5.59
		c0.13-1.8,0.14-3.2,0.15-4.02C49.68,8.31,49.68,7.8,49.65,7.09z M47.98,10.05c-0.01,0.76-0.01,2.08-0.14,3.76
		c-0.19,2.63-0.54,4.65-0.65,5.23c-0.1,0.56-0.48,2.58-1.24,5.17c-0.76,2.59-1.54,4.48-1.81,5.12c-0.25,0.58-0.46,1.07-0.62,1.41
		l-0.54,1.17c-0.16,0.28-0.32,0.56-0.48,0.84c-0.31,0.56-0.61,1.11-0.88,1.65l-1.15,1.83c-0.53,0.76-1.06,1.53-1.59,2.29l-1.86,2.34
		c-0.78,0.84-1.56,1.68-2.33,2.52l-1.16,1.19l0,0c-0.39,0.35-0.91,0.81-1.53,1.34c-0.38,0.33-0.88,0.75-1.5,1.25
		c-1.01,0.82-1.85,1.44-2.32,1.78c-1.53,1.1-2.06,1.49-2.8,1.87c-0.25,0.13-0.46,0.23-0.6,0.29c-0.12-0.07-0.29-0.17-0.5-0.29
		c-0.57-0.34-1.03-0.65-1.77-1.16c-0.69-0.49-1.26-0.88-2.06-1.48c-0.86-0.64-1.29-0.96-1.71-1.32c-0.53-0.45-0.79-0.72-1.74-1.55
		c-0.29-0.25-0.8-0.73-0.8-0.74l0,0l-1.24-1.13l0,0c-1.25-1.24-2.24-2.39-3-3.32c-0.69-0.84-2.19-2.75-3.77-5.43
		c-0.34-0.58-0.61-1.06-0.79-1.4c-0.24-0.47-0.49-0.94-0.73-1.41L6.1,30.73c-0.26-0.62-0.52-1.24-0.78-1.87
		c-0.2-0.46-0.48-1.12-0.77-1.94c-0.17-0.46-0.28-0.85-0.52-1.61c-0.39-1.25-0.64-2.15-0.72-2.41c-0.19-0.68-0.28-1.02-0.36-1.34
		c-0.1-0.44-0.23-1.17-0.5-2.63c-0.09-0.49-0.12-0.65-0.15-0.89c-0.08-0.53-0.08-0.65-0.18-1.44c-0.07-0.52-0.08-0.54-0.15-1.13
		c-0.06-0.44-0.1-0.81-0.11-0.95c-0.08-0.72-0.1-1.36-0.14-2.62c-0.02-0.66-0.04-1.32-0.04-2.21c0-0.42,0-0.97,0.03-1.7
		c0.02-0.52,0.04-0.94,0.06-1.17c0.04-0.7,0.1-1.47,0.1-1.47c0.16-0.04,0.42-0.1,0.73-0.18C3.2,5.01,3.42,4.95,3.88,4.83
		c0.39-0.1,0.67-0.17,0.99-0.24c0.15-0.04,0.77-0.18,1.69-0.38c0.57-0.13,0.56-0.12,1.26-0.27c0.99-0.21,0.99-0.22,1.49-0.33
		c0.4-0.08,0.89-0.18,1.53-0.28c0.56-0.09,0.58-0.08,1.24-0.18c0.57-0.09,0.66-0.12,1.1-0.19c0.41-0.06,0.64-0.08,1.11-0.13
		c0.82-0.09,0.92-0.12,1.67-0.21c0.2-0.02,1.08-0.13,2.02-0.21c1.42-0.13,2.55-0.18,3.22-0.21c0.44-0.02,1.67-0.07,3.27-0.07
		c1.57,0,2.81,0.04,3.43,0.07c2.65,0.11,4.7,0.33,5.44,0.42c2.18,0.25,3.7,0.52,6.1,0.96c2.75,0.5,4.95,0.98,6.1,1.24
		c0.92,0.2,1.69,0.38,2.26,0.52c0.01,0.26,0.03,0.66,0.05,1.15c0.05,0.87,0.08,1.19,0.11,1.73C47.99,8.87,47.99,9.35,47.98,10.05z"
		/>
	<path class="st1" d="M44.85,9.54c-0.02-0.7-0.06-1.29-0.08-1.71c-1.47-0.42-2.74-0.73-3.75-0.96c-1.46-0.34-3.24-0.74-5.48-1.04
		L34.1,5.66c0.29,0.08,0.54,0.17,0.73,0.26c0.31,0.19,0.73,0.49,1.15,0.93c0.68,0.72,0.99,1.43,1.09,1.65
		c0.39,0.95,0.39,1.76,0.39,2.34c-0.02,1.73-0.59,3.14-1.07,4.03c-0.06-0.09-0.13-0.23-0.23-0.38c-0.17-0.27-0.4-0.59-0.77-1.04
		c-0.29-0.35-0.68-0.83-1.26-1.39c-0.16-0.15-1.22-1.17-2.54-1.94c-0.69-0.4-1.32-0.67-1.4-0.7c-0.14-0.06-0.32-0.12-0.36-0.15
		l-0.18-0.08l0-0.07c0,0,0-0.16,0-0.16c0-0.03,0.01-0.6,0.09-0.99c0.19-0.9,0.77-1.73,1.11-1.97c0.19-0.13,0.4-0.21,0.4-0.21
		c0.11-0.05,0.21-0.07,0.28-0.09c0.3-0.09,0.75-0.2,1.31-0.21c-0.05-0.01-0.09-0.01-0.14-0.02c-1.04-0.12-1.55-0.18-1.89-0.21
		c-1.44-0.14-2.5-0.16-4.29-0.19c-1.16-0.02-2.13-0.03-3.48,0c-0.96,0.02-2.45,0.08-4.26,0.24l-0.99,0.11l-0.75,0.08
		c0.17,0,0.35,0.01,0.53,0.04c0.1,0.01,0.2,0.03,0.3,0.05c0.52,0.11,0.79,0.28,0.89,0.34c0.38,0.25,0.58,0.55,0.73,0.77
		c0.07,0.11,0.46,0.7,0.51,1.4C20,8.24,20.01,8.4,20.01,8.55c0,0.28-0.02,0.5-0.03,0.66c-1.51,0.68-2.66,1.44-3.45,2.03
		c-2.3,1.73-2.93,3.07-3.12,3.51c-0.03,0.07-0.05,0.13-0.07,0.17c-0.86-1.26-1.11-2.37-1.12-3.27c0-0.03,0-0.05,0-0.08v-0.98
		c-0.01-0.3,0.02-0.56,0.05-0.78c0.05-0.39,0.14-0.68,0.17-0.79c0.08-0.25,0.16-0.44,0.21-0.55c0.14-0.33,0.29-0.57,0.37-0.71
		c0.1-0.16,0.18-0.28,0.22-0.34c0.11-0.16,0.2-0.28,0.24-0.33c0.13-0.16,0.31-0.39,0.6-0.65c0.15-0.13,0.25-0.2,0.29-0.23
		c0.06-0.04,0.17-0.11,0.35-0.2c0.16-0.08,0.41-0.19,0.75-0.28c0.12-0.03,0.25-0.06,0.38-0.09c0.02,0,0.04-0.01,0.05-0.01
		l-0.23,0.03c-0.8,0.11-1.48,0.21-2.02,0.3c-0.89,0.14-3.82,0.61-7.63,1.55C5.48,7.65,5.05,7.76,4.74,7.84
		c-0.01,0.3-0.03,0.76-0.05,1.31c-0.05,1.2-0.07,1.79-0.08,2.19c-0.02,0.72-0.04,1.72,0.03,2.96c0.03,0.61,0.09,1.42,0.22,2.37
		c0.03,0.28,0.07,0.68,0.14,1.15c0.24,1.87,0.55,3.33,0.73,4.11c0.17,0.77,0.41,1.8,0.84,3.15c0,0,0.62,1.97,1.75,4.48
		c0.2,0.45,0.4,0.85,0.4,0.85c0.07,0.14,0.13,0.26,0.17,0.33c-0.15,0-0.29,0-0.44,0c-0.21,0-0.41,0-0.62,0c-0.57,0-1.14,0-1.71,0
		l0.56,1.13h2.79c0.39,0.76,0.92,1.69,1.59,2.72c0.55,0.84,1.01,1.46,1.38,1.95c0.53,0.71,1.2,1.57,2.02,2.53
		c-0.02-2.34-0.05-4.68-0.07-7.02h4.07c1.2,2.13,2.41,4.25,3.61,6.38c-0.04-2.13-0.09-4.25-0.13-6.38h3.93v11.3l-4.44,0.04
		c-0.95-1.76-1.91-3.51-2.86-5.27c0.06,1.75,0.12,3.51,0.19,5.26c-1.26,0.01-2.52,0.03-3.78,0.04l1.24,1.13
		c1.34-0.01,2.69-0.02,4.03-0.03c0.59,0.51,1.26,1.05,2.02,1.59c0.89,0.63,1.74,1.16,2.53,1.59c1.18-0.72,2.4-1.54,3.62-2.45
		c0.29-0.21,0.57-0.43,0.84-0.65c1.42-0.02,2.84-0.03,4.27-0.05l1.16-1.19c-2.79,0-5.58,0.01-8.37,0.01
		c-0.02-3.63-0.01-11.33-0.01-11.33c5.56-0.05,11.12-0.09,16.68-0.14l0.54-1.17c-0.97-0.01-1.94-0.02-2.91-0.03
		c0.17-0.3,0.41-0.75,0.67-1.31c0.09-0.2,0.46-0.97,1.03-2.53c0.22-0.6,0.5-1.38,0.81-2.4c0.11-0.36,0.55-1.85,0.97-4
		c0.25-1.31,0.61-3.16,0.75-5.6C44.98,12.87,44.91,11.17,44.85,9.54z M19.96,28.69c-0.33,0.02-0.82,0.02-1.39-0.14
		c-0.06-0.02-0.28-0.08-0.54-0.2c-0.77-0.34-1.25-0.82-1.37-0.95c-0.14-0.14-0.55-0.59-0.86-1.31c-0.2-0.48-0.29-0.9-0.32-1.21
		c-0.05-0.56-0.07-1.22,0.01-1.96c0.05-0.45,0.12-0.85,0.2-1.21l0.06-0.13c2.42,1.13,4.84,2.26,7.26,3.39
		C21.99,26.21,20.98,27.45,19.96,28.69z M26.99,30.58c-0.06,0.1-0.14,0.14-0.16,0.16c-0.24,0.14-0.83,0.56-1.65,1.16h-0.3l-0.18,0
		h-0.16l-0.02-0.01c-0.85-0.6-1.48-1.04-1.72-1.19c-0.02-0.02-0.11-0.08-0.16-0.18c-0.07-0.17-0.01-0.37,0.12-0.46
		c0.08-0.05,0.17-0.05,0.19-0.05c0.26,0.01,1.75,0.01,3.81-0.01c0.12,0,0.18,0.05,0.2,0.07C27.12,30.18,27.09,30.43,26.99,30.58z
		 M34.22,24.96c-0.02,0.08-0.2,0.97-0.66,1.77c-0.13,0.22-0.23,0.36-0.29,0.43c-0.08,0.1-0.35,0.43-0.82,0.75
		c-0.41,0.28-0.77,0.4-1.13,0.52c-0.72,0.25-1.22,0.27-1.34,0.28c-0.11,0-0.2,0-0.27,0c-1-1.24-2-2.48-2.99-3.72
		c2.42-1.14,4.84-2.27,7.26-3.41C34.07,21.9,34.52,23.45,34.22,24.96z"/>
	<g>
		<path class="st1" d="M41.62,34.41l-1.15,1.83c-3.33,0-6.67,0.01-10,0.01c0-0.62,0-1.23-0.01-1.85
			C34.18,34.4,37.9,34.41,41.62,34.41z"/>
		<path class="st1" d="M38.88,38.52l-1.86,2.34c-2.18-0.01-4.36-0.02-6.54-0.03c0-0.76,0.01-1.52,0.01-2.28
			C33.29,38.54,36.09,38.53,38.88,38.52z"/>
	</g>
	<path class="st2" d="M15.23,5.72l0.73-0.09c0.02,0,0.03-0.01,0.05-0.01C15.74,5.66,15.48,5.69,15.23,5.72z"/>
	<path class="st2" d="M17.03,5.52c-0.04,0-0.08,0-0.12,0l-0.95,0.11c-0.02,0-0.04,0.01-0.07,0.01l0.69-0.08L17.03,5.52z"/>
	<path class="st2" d="M32.86,5.51l1.24,0.15c-0.23-0.06-0.49-0.11-0.79-0.14c-0.17-0.02-0.34-0.02-0.49-0.02
		C32.84,5.51,32.85,5.51,32.86,5.51C32.86,5.51,32.86,5.51,32.86,5.51z"/>
	<g>
		<path d="M42.99,31.92c-0.16,0.28-0.32,0.56-0.48,0.84c-0.31,0.56-0.61,1.11-0.88,1.65c-3.72,0-7.44-0.01-11.16-0.01
			c0,0.62,0,1.23,0.01,1.85c3.34-0.01,6.67-0.01,10-0.01c-0.53,0.76-1.06,1.53-1.59,2.29c-2.8,0.01-5.59,0.01-8.39,0.02
			c-0.01,0.76-0.01,1.52-0.01,2.28c2.18,0.01,4.36,0.02,6.54,0.03c-0.78,0.84-1.56,1.68-2.33,2.52c-2.79,0-5.58,0.01-8.37,0.01
			c-0.02-3.63-0.01-11.33-0.01-11.33C31.87,32.01,37.43,31.96,42.99,31.92z"/>
		<path d="M47.98,10.05c-0.01,0.76-0.01,2.08-0.14,3.76c-0.19,2.63-0.54,4.65-0.65,5.23c-0.1,0.56-0.48,2.58-1.24,5.17
			c-0.76,2.59-1.54,4.48-1.81,5.12c-0.25,0.58-0.46,1.07-0.62,1.41c-0.97-0.01-1.94-0.02-2.91-0.03c0.17-0.3,0.41-0.75,0.67-1.31
			c0.09-0.2,0.46-0.97,1.03-2.53c0.22-0.6,0.5-1.38,0.81-2.4c0.11-0.36,0.55-1.85,0.97-4c0.25-1.31,0.61-3.16,0.75-5.6
			c0.12-2,0.06-3.7,0-5.33c-0.02-0.7-0.06-1.29-0.08-1.71c-1.47-0.42-2.74-0.73-3.75-0.96c-1.46-0.34-3.24-0.74-5.48-1.04L34.1,5.66
			c-0.23-0.06-0.49-0.11-0.79-0.14c-0.17-0.02-0.34-0.02-0.49-0.02c-0.05-0.01-0.09-0.01-0.14-0.02c-1.04-0.12-1.55-0.18-1.89-0.21
			c-1.44-0.14-2.5-0.16-4.29-0.19c-1.16-0.02-2.13-0.03-3.48,0c-0.96,0.02-2.45,0.08-4.26,0.24l-0.99,0.11l-0.75,0.08
			c-0.04,0-0.08,0-0.12,0l-0.95,0.11c0.02,0,0.03-0.01,0.05-0.01c-0.27,0.03-0.53,0.06-0.78,0.1l0.73-0.09
			c-0.02,0-0.04,0.01-0.07,0.01l-0.23,0.03c-0.8,0.11-1.48,0.21-2.02,0.3c-0.89,0.14-3.82,0.61-7.63,1.55
			C5.48,7.65,5.05,7.76,4.74,7.84c-0.01,0.3-0.03,0.76-0.05,1.31c-0.05,1.2-0.07,1.79-0.08,2.19c-0.02,0.72-0.04,1.72,0.03,2.96
			c0.03,0.61,0.09,1.42,0.22,2.37c0.03,0.28,0.07,0.68,0.14,1.15c0.24,1.87,0.55,3.33,0.73,4.11c0.17,0.77,0.41,1.8,0.84,3.15
			c0,0,0.62,1.97,1.75,4.48c0.2,0.45,0.4,0.85,0.4,0.85c0.07,0.14,0.13,0.26,0.17,0.33c-0.15,0-0.29,0-0.44,0c-0.21,0-0.41,0-0.62,0
			c-0.57,0-1.14,0-1.71,0c-0.26-0.62-0.52-1.24-0.78-1.87c-0.2-0.46-0.48-1.12-0.77-1.94c-0.17-0.46-0.28-0.85-0.52-1.61
			c-0.39-1.25-0.64-2.15-0.72-2.41c-0.19-0.68-0.28-1.02-0.36-1.34c-0.1-0.44-0.23-1.17-0.5-2.63c-0.09-0.49-0.12-0.65-0.15-0.89
			c-0.08-0.53-0.08-0.65-0.18-1.44c-0.07-0.52-0.08-0.54-0.15-1.13c-0.06-0.44-0.1-0.81-0.11-0.95c-0.08-0.72-0.1-1.36-0.14-2.62
			c-0.02-0.66-0.04-1.32-0.04-2.21c0-0.42,0-0.97,0.03-1.7c0.02-0.52,0.04-0.94,0.06-1.17c0.04-0.7,0.1-1.47,0.1-1.47
			c0.16-0.04,0.42-0.1,0.73-0.18C3.2,5.01,3.42,4.95,3.88,4.83c0.39-0.1,0.67-0.17,0.99-0.24c0.15-0.04,0.77-0.18,1.69-0.38
			c0.57-0.13,0.56-0.12,1.26-0.27c0.99-0.21,0.99-0.22,1.49-0.33c0.4-0.08,0.89-0.18,1.53-0.28c0.56-0.09,0.58-0.08,1.24-0.18
			c0.57-0.09,0.66-0.12,1.1-0.19c0.41-0.06,0.64-0.08,1.11-0.13c0.82-0.09,0.92-0.12,1.67-0.21c0.2-0.02,1.08-0.13,2.02-0.21
			c1.42-0.13,2.55-0.18,3.22-0.21c0.44-0.02,1.67-0.07,3.27-0.07c1.57,0,2.81,0.04,3.43,0.07c2.65,0.11,4.7,0.33,5.44,0.42
			c2.18,0.25,3.7,0.52,6.1,0.96c2.75,0.5,4.95,0.98,6.1,1.24c0.92,0.2,1.69,0.38,2.26,0.52c0.01,0.26,0.03,0.66,0.05,1.15
			c0.05,0.87,0.08,1.19,0.11,1.73C47.99,8.87,47.99,9.35,47.98,10.05z"/>
		<path d="M15.46,5.76c-0.34,0.09-0.59,0.2-0.75,0.28c-0.18,0.09-0.29,0.16-0.35,0.2c-0.04,0.03-0.14,0.1-0.29,0.23
			c-0.28,0.25-0.47,0.49-0.59,0.65c-0.04,0.05-0.13,0.16-0.24,0.33c-0.04,0.06-0.12,0.18-0.21,0.33c-0.08,0.14-0.23,0.38-0.37,0.71
			c-0.05,0.11-0.13,0.29-0.21,0.55c-0.04,0.12-0.12,0.41-0.17,0.79c-0.03,0.22-0.05,0.48-0.05,0.78l0,0.98c0,0.03,0,0.05,0,0.08
			c0.01,0.9,0.26,2.01,1.12,3.27c0.01-0.04,0.04-0.1,0.07-0.17c0.19-0.44,0.82-1.79,3.12-3.51c0.79-0.59,1.93-1.34,3.45-2.03
			c0.02-0.16,0.03-0.38,0.03-0.66C20.01,8.4,20,8.24,20,8.13c-0.06-0.69-0.44-1.28-0.51-1.4c-0.15-0.22-0.35-0.52-0.73-0.77
			c-0.1-0.07-0.37-0.23-0.89-0.34c-0.1-0.02-0.2-0.04-0.3-0.05c-0.18-0.03-0.36-0.04-0.53-0.04l-0.45,0.05l-0.69,0.08
			c-0.02,0-0.04,0.01-0.05,0.01C15.71,5.69,15.59,5.72,15.46,5.76z"/>
		<path d="M31.24,5.81c0,0-0.2,0.08-0.4,0.21c-0.34,0.23-0.92,1.06-1.11,1.97c-0.08,0.39-0.09,0.96-0.09,0.99c0,0,0,0.16,0,0.16
			l0,0.07l0.18,0.08c0.03,0.02,0.22,0.09,0.36,0.15c0.08,0.03,0.71,0.29,1.4,0.7c1.31,0.77,2.38,1.78,2.54,1.94
			c0.58,0.56,0.97,1.03,1.26,1.39c0.38,0.46,0.6,0.78,0.77,1.04c0.1,0.15,0.18,0.28,0.23,0.38c0.47-0.89,1.05-2.3,1.07-4.03
			c0.01-0.58,0.01-1.39-0.39-2.34c-0.09-0.23-0.41-0.94-1.09-1.65c-0.42-0.44-0.84-0.74-1.15-0.93c-0.19-0.08-0.43-0.18-0.73-0.26
			l-1.24-0.15c0,0,0,0,0.01,0c-0.01,0-0.03,0-0.04,0c-0.56,0.01-1.01,0.12-1.31,0.21C31.45,5.74,31.35,5.76,31.24,5.81z"/>
		<path d="M25.87,32.05v11.3l-4.44,0.04c-0.95-1.76-1.91-3.51-2.86-5.27c0.06,1.75,0.12,3.51,0.19,5.26
			c-1.26,0.01-2.52,0.03-3.78,0.04c0,0,0,0,0,0c-1.25-1.24-2.24-2.39-3-3.32c-0.69-0.84-2.19-2.75-3.77-5.43
			c-0.34-0.58-0.61-1.06-0.79-1.4c-0.24-0.47-0.49-0.94-0.73-1.41h2.79c0.39,0.76,0.92,1.69,1.59,2.72
			c0.55,0.84,1.01,1.46,1.38,1.95c0.53,0.71,1.2,1.57,2.02,2.53c-0.02-2.34-0.05-4.68-0.07-7.02h4.07c1.2,2.13,2.41,4.25,3.61,6.38
			c-0.04-2.13-0.09-4.25-0.13-6.38H25.87z"/>
		<path d="M33.53,44.56C33.53,44.56,33.53,44.56,33.53,44.56c-0.39,0.35-0.91,0.81-1.53,1.34c-0.38,0.33-0.88,0.75-1.5,1.25
			c-1.01,0.82-1.85,1.44-2.32,1.78c-1.53,1.1-2.06,1.49-2.8,1.87c-0.25,0.13-0.46,0.23-0.6,0.29c-0.12-0.07-0.29-0.17-0.5-0.29
			c-0.57-0.34-1.03-0.65-1.77-1.16c-0.69-0.49-1.26-0.88-2.06-1.48c-0.86-0.64-1.29-0.96-1.71-1.32c-0.53-0.45-0.79-0.72-1.74-1.55
			c-0.28-0.24-0.77-0.7-0.8-0.74c0,0,0,0,0,0l0,0c1.34-0.01,2.69-0.02,4.03-0.03c0.59,0.51,1.26,1.05,2.02,1.59
			c0.89,0.63,1.74,1.16,2.53,1.59c1.18-0.72,2.4-1.54,3.62-2.45c0.29-0.21,0.57-0.43,0.84-0.65C30.68,44.59,32.1,44.58,33.53,44.56z
			"/>
		<path d="M15.74,21.58l-0.06,0.13c-0.08,0.36-0.16,0.77-0.2,1.22c-0.08,0.74-0.06,1.41-0.01,1.96c0.04,0.3,0.12,0.73,0.32,1.21
			c0.3,0.71,0.72,1.16,0.86,1.31c0.12,0.12,0.6,0.6,1.37,0.95c0.27,0.12,0.48,0.18,0.54,0.2c0.57,0.16,1.07,0.17,1.39,0.14
			c1.01-1.24,2.03-2.47,3.04-3.71C20.58,23.84,18.16,22.71,15.74,21.58z"/>
		<path d="M26.72,24.99c1,1.24,2,2.48,2.99,3.72c0.06,0,0.16,0,0.26,0c0.12,0,0.62-0.03,1.34-0.27c0.36-0.12,0.71-0.25,1.13-0.52
			c0.47-0.32,0.75-0.65,0.82-0.75c0.06-0.08,0.17-0.22,0.29-0.43c0.46-0.8,0.65-1.69,0.66-1.77c0.3-1.51-0.14-3.06-0.24-3.38
			C31.56,22.72,29.14,23.85,26.72,24.99z"/>
		<path d="M26.77,29.99c-2.06,0.01-3.55,0.02-3.81,0c-0.02,0-0.11-0.01-0.19,0.05c-0.13,0.08-0.19,0.29-0.12,0.46
			c0.04,0.11,0.13,0.17,0.16,0.18c0.24,0.16,0.87,0.6,1.72,1.19l0.02,0.01c0,0,0.16,0,0.16,0c0,0,0.18,0,0.18,0c0,0,0.29,0,0.3,0
			c0.82-0.6,1.41-1.02,1.65-1.16c0.02-0.01,0.1-0.06,0.16-0.16c0.09-0.15,0.12-0.4-0.02-0.52C26.95,30.04,26.89,29.99,26.77,29.99z"
			/>
	</g>
</g>
</svg>
