<?xml version="1.0" encoding="utf-8"?>
<!-- Generator: Adobe Illustrator 27.7.0, SVG Export Plug-In . SVG Version: 6.00 Build 0)  -->
<svg version="1.1" id="Layer_1" xmlns="http://www.w3.org/2000/svg" xmlns:xlink="http://www.w3.org/1999/xlink" x="0px" y="0px"
	 viewBox="0 0 167.69 177.63" style="enable-background:new 0 0 167.69 177.63;" xml:space="preserve">
<style type="text/css">
	.st0{fill:#03BAD8;}
	.st1{fill:#FFFFFF;}
	.st2{fill:#000002;}
</style>
<g>
	<path class="st0" d="M165.21,23.17c-0.09-1.92-0.21-3.06-0.38-6.12c-0.09-1.71-0.15-3.12-0.19-4.05c-2.01-0.47-4.75-1.11-8-1.83
		c-4.1-0.91-11.89-2.62-21.64-4.39c-8.52-1.54-13.89-2.51-21.61-3.39c-2.62-0.3-9.88-1.08-19.28-1.47
		c-2.2-0.09-6.58-0.25-12.16-0.24c-5.69,0-10.03,0.18-11.59,0.24c-2.38,0.1-6.38,0.27-11.41,0.73c-3.31,0.3-6.46,0.67-7.16,0.76
		c-2.68,0.32-3.02,0.4-5.94,0.73c-1.64,0.18-2.46,0.26-3.92,0.48c-1.54,0.23-1.89,0.32-3.9,0.65c-2.3,0.37-2.41,0.34-4.38,0.65
		c-2.28,0.36-4.02,0.72-5.42,1c-1.79,0.37-1.78,0.4-5.3,1.15c-2.5,0.54-2.44,0.51-4.48,0.95c-3.25,0.71-5.45,1.23-5.98,1.35
		c-1.13,0.27-2.13,0.51-3.52,0.86c-1.62,0.41-2.41,0.63-4.48,1.17c-1.12,0.29-2.02,0.51-2.59,0.66c0,0-0.21,2.73-0.36,5.19
		c-0.05,0.8-0.14,2.3-0.2,4.14c-0.1,2.58-0.1,4.53-0.1,6.02c-0.01,3.14,0.06,5.46,0.13,7.8c0.13,4.43,0.2,6.7,0.48,9.25
		c0.05,0.51,0.21,1.81,0.41,3.36c0.26,2.06,0.3,2.14,0.53,3.99c0.36,2.81,0.36,3.24,0.64,5.09c0.13,0.84,0.23,1.4,0.54,3.13
		c0.93,5.15,1.39,7.77,1.76,9.3c0.26,1.12,0.6,2.32,1.27,4.72c0.27,0.94,1.16,4.12,2.55,8.52c0.85,2.7,1.27,4.05,1.85,5.69
		c1.03,2.88,2.01,5.22,2.73,6.85c0.92,2.2,1.83,4.4,2.75,6.59l2.04,3.98h-0.05c0.87,1.66,1.73,3.33,2.6,4.99
		c0.65,1.18,1.6,2.9,2.81,4.94c5.61,9.46,10.94,16.22,13.37,19.19c2.69,3.29,6.22,7.32,10.66,11.72l4.83,4.41
		c0.6,0.57,1.69,1.58,2.41,2.2c3.38,2.95,4.3,3.89,6.17,5.48c1.48,1.26,3,2.4,6.06,4.67c2.83,2.1,4.85,3.5,7.31,5.22
		c2.61,1.81,4.23,2.89,6.27,4.11c0.73,0.43,1.34,0.79,1.77,1.03c0.51-0.23,1.25-0.58,2.13-1.03c2.6-1.33,4.51-2.7,9.92-6.6
		c1.67-1.21,4.65-3.4,8.23-6.28c2.2-1.78,3.95-3.27,5.3-4.43c2.2-1.88,4.04-3.5,5.42-4.74l4.12-4.19c2.75-2.96,5.52-5.93,8.27-8.89
		l6.6-8.25c1.88-2.7,3.77-5.4,5.65-8.09l4.07-6.45c0.97-1.9,2.01-3.84,3.12-5.82c0.57-1.01,1.14-2.01,1.71-2.98l1.93-4.15
		c0.56-1.22,1.33-2.92,2.2-4.99c0.95-2.25,3.7-8.93,6.41-18.08c2.71-9.14,4.04-16.28,4.4-18.27c0.37-2.03,1.62-9.15,2.29-18.46
		c0.43-5.93,0.46-10.58,0.48-13.28C165.33,27.18,165.33,25.5,165.21,23.17z M159.72,32.95c-0.02,2.53-0.05,6.87-0.45,12.42
		c-0.63,8.7-1.8,15.37-2.14,17.27c-0.33,1.85-1.58,8.53-4.1,17.09c-2.52,8.56-5.09,14.8-5.97,16.91c-0.81,1.93-1.53,3.53-2.05,4.67
		l-1.8,3.88c-0.54,0.91-1.07,1.84-1.6,2.79c-1.03,1.84-2,3.66-2.91,5.44l-3.79,6.03c-1.76,2.52-3.51,5.05-5.27,7.57l-6.15,7.72
		c-2.57,2.77-5.14,5.54-7.71,8.32l-3.84,3.92l-0.01,0c-1.29,1.16-3,2.68-5.04,4.43c-1.26,1.08-2.89,2.48-4.94,4.14
		c-3.33,2.7-6.11,4.75-7.67,5.88c-5.04,3.65-6.82,4.93-9.24,6.17c-0.82,0.42-1.51,0.74-1.98,0.96c-0.4-0.22-0.97-0.55-1.65-0.96
		c-1.9-1.14-3.41-2.15-5.84-3.84c-2.29-1.6-4.17-2.92-6.81-4.88c-2.85-2.12-4.27-3.18-5.65-4.36c-1.74-1.49-2.59-2.37-5.75-5.13
		c-0.96-0.84-2.63-2.42-2.65-2.44l0,0l-4.09-3.75l0,0c-4.12-4.11-7.42-7.88-9.92-10.96c-2.26-2.78-7.24-9.1-12.46-17.95
		c-1.13-1.9-2.02-3.51-2.62-4.62c-0.81-1.56-1.62-3.11-2.43-4.67l-1.86-3.72c-0.86-2.06-1.71-4.11-2.56-6.17
		c-0.67-1.52-1.58-3.71-2.54-6.4c-0.55-1.53-0.94-2.8-1.73-5.32c-1.29-4.12-2.13-7.09-2.37-7.97c-0.63-2.25-0.94-3.37-1.19-4.41
		c-0.34-1.44-0.78-3.88-1.64-8.7c-0.29-1.62-0.38-2.15-0.5-2.93c-0.26-1.74-0.26-2.13-0.59-4.76c-0.22-1.73-0.25-1.8-0.5-3.73
		c-0.19-1.45-0.33-2.67-0.38-3.14c-0.27-2.38-0.33-4.51-0.45-8.65c-0.06-2.19-0.12-4.36-0.12-7.29c0-1.39,0.01-3.21,0.09-5.63
		c0.07-1.72,0.15-3.11,0.19-3.87c0.14-2.31,0.33-4.86,0.33-4.86c0.53-0.13,1.38-0.34,2.41-0.61c1.93-0.5,2.66-0.71,4.18-1.09
		c1.29-0.33,2.23-0.55,3.28-0.8c0.5-0.12,2.55-0.6,5.58-1.27c1.9-0.41,1.84-0.39,4.18-0.89c3.28-0.71,3.27-0.74,4.94-1.08
		c1.31-0.27,2.93-0.6,5.05-0.94c1.84-0.29,1.93-0.26,4.08-0.61c1.88-0.31,2.19-0.4,3.63-0.61c1.36-0.2,2.13-0.27,3.65-0.44
		c2.72-0.31,3.04-0.38,5.53-0.68c0.65-0.08,3.58-0.42,6.67-0.71c4.69-0.43,8.42-0.59,10.63-0.69c1.46-0.06,5.51-0.22,10.81-0.22
		c5.2-0.01,9.28,0.14,11.33,0.22c8.76,0.37,15.53,1.1,17.97,1.38c7.2,0.82,12.21,1.73,20.14,3.17c9.09,1.65,16.34,3.25,20.17,4.1
		c3.03,0.68,5.58,1.27,7.46,1.71c0.03,0.87,0.09,2.19,0.18,3.79c0.16,2.86,0.27,3.93,0.36,5.72
		C159.74,29.05,159.73,30.62,159.72,32.95z"/>
	<path class="st1" d="M149.38,31.27c-0.08-2.33-0.19-4.27-0.27-5.64c-4.84-1.37-9.04-2.41-12.39-3.17
		c-4.82-1.11-10.7-2.45-18.09-3.44l-4.78-0.58c0.97,0.26,1.78,0.57,2.4,0.85c1.03,0.63,2.41,1.61,3.79,3.06
		c2.25,2.37,3.28,4.72,3.59,5.47c1.3,3.12,1.3,5.8,1.28,7.72c-0.05,5.72-1.96,10.38-3.53,13.32c-0.18-0.31-0.44-0.74-0.77-1.25
		c-0.56-0.88-1.31-1.94-2.55-3.44c-0.96-1.17-2.25-2.73-4.17-4.58c-0.52-0.51-4.04-3.86-8.38-6.4c-2.28-1.34-4.37-2.2-4.62-2.3
		c-0.46-0.19-1.07-0.41-1.19-0.49l-0.59-0.25l-0.01-0.24c0,0-0.01-0.51-0.01-0.52c0-0.11,0.03-1.98,0.31-3.29
		c0.62-2.98,2.54-5.72,3.67-6.49c0.63-0.43,1.31-0.7,1.31-0.7c0.37-0.15,0.69-0.24,0.93-0.3c0.98-0.31,2.48-0.67,4.33-0.7
		c-0.16-0.02-0.31-0.03-0.45-0.05c-3.42-0.4-5.13-0.6-6.24-0.71c-4.77-0.46-8.27-0.52-14.17-0.61c-3.84-0.06-7.05-0.11-11.5,0
		c-3.18,0.08-8.09,0.27-14.08,0.79l-3.28,0.36l-2.48,0.28c0.57,0,1.16,0.04,1.77,0.13c0.33,0.04,0.66,0.1,0.99,0.17
		c1.7,0.37,2.6,0.91,2.94,1.13c1.26,0.83,1.92,1.81,2.41,2.56c0.25,0.37,1.51,2.32,1.7,4.62c0.03,0.35,0.05,0.9,0.05,1.39
		c0,0.91-0.05,1.66-0.1,2.18c-5,2.25-8.79,4.75-11.38,6.69c-7.61,5.7-9.69,10.15-10.31,11.61c-0.1,0.23-0.18,0.42-0.22,0.55
		c-2.84-4.16-3.68-7.84-3.7-10.79c0-0.08,0-0.17,0-0.25v-3.23c-0.02-0.99,0.05-1.86,0.15-2.58c0.18-1.28,0.45-2.23,0.57-2.62
		c0.26-0.84,0.53-1.45,0.68-1.81c0.48-1.09,0.95-1.89,1.23-2.35c0.32-0.53,0.58-0.92,0.71-1.11c0.37-0.54,0.67-0.93,0.79-1.08
		c0.42-0.53,1.03-1.3,1.97-2.13c0.49-0.44,0.83-0.67,0.95-0.75c0.2-0.14,0.55-0.36,1.14-0.65c0.54-0.26,1.37-0.61,2.48-0.92
		c0.41-0.1,0.83-0.2,1.24-0.31c0.06-0.01,0.12-0.03,0.18-0.04l-0.76,0.08c-2.66,0.35-4.88,0.7-6.66,0.98
		c-2.94,0.46-12.63,2.02-25.22,5.11c-1.75,0.43-3.19,0.8-4.19,1.06c-0.04,1.01-0.1,2.5-0.18,4.32c-0.16,3.95-0.24,5.93-0.27,7.22
		c-0.06,2.38-0.13,5.67,0.09,9.78c0.11,2.01,0.31,4.69,0.71,7.84c0.1,0.93,0.24,2.23,0.45,3.79c0.81,6.18,1.83,11.01,2.4,13.57
		c0.58,2.54,1.36,5.95,2.77,10.39c0,0,2.06,6.51,5.79,14.8c0.67,1.48,1.34,2.82,1.34,2.82c0.24,0.48,0.44,0.86,0.56,1.08
		c-0.48,0-0.97,0-1.45,0c-0.68,0-1.37,0-2.05,0.01c-1.89,0-3.78,0.01-5.66,0.01l1.86,3.72h9.23c1.3,2.5,3.03,5.58,5.26,8.99
		c1.81,2.78,3.33,4.81,4.54,6.46c1.75,2.35,3.98,5.2,6.68,8.36c-0.08-7.72-0.15-15.45-0.23-23.18h13.46
		c3.97,7.03,7.95,14.05,11.93,21.08c-0.14-7.03-0.28-14.05-0.42-21.08h12.99v37.32l-14.68,0.15c-3.15-5.81-6.3-11.61-9.46-17.42
		c0.21,5.8,0.41,11.6,0.61,17.39c-4.16,0.04-8.32,0.08-12.49,0.13l4.09,3.75c4.44-0.03,8.88-0.06,13.32-0.09
		c1.95,1.7,4.17,3.48,6.66,5.25c2.94,2.08,5.76,3.82,8.37,5.25c3.91-2.39,7.92-5.07,11.97-8.1c0.95-0.71,1.88-1.42,2.79-2.13
		c4.7-0.05,9.4-0.1,14.1-0.15l3.84-3.92c-9.22,0.01-18.44,0.02-27.66,0.03c-0.05-12-0.03-37.43-0.03-37.43
		c18.37-0.15,36.74-0.31,55.12-0.45l1.8-3.88c-3.21-0.03-6.42-0.06-9.63-0.09c0.56-1.01,1.36-2.49,2.23-4.32
		c0.31-0.66,1.51-3.21,3.39-8.37c0.72-1.99,1.66-4.56,2.67-7.93c0.36-1.2,1.82-6.11,3.21-13.21c0.84-4.32,2.01-10.43,2.49-18.5
		C149.78,42.27,149.58,36.65,149.38,31.27z M67.15,94.51c-1.08,0.08-2.71,0.07-4.6-0.47c-0.2-0.06-0.91-0.26-1.8-0.66
		c-2.55-1.13-4.14-2.72-4.53-3.13c-0.46-0.47-1.83-1.96-2.83-4.31c-0.67-1.58-0.95-2.99-1.07-3.98c-0.17-1.84-0.22-4.03,0.03-6.49
		c0.15-1.47,0.39-2.81,0.67-4.01l0.19-0.42c7.99,3.74,15.99,7.47,23.98,11.21C73.84,86.33,70.5,90.42,67.15,94.51z M90.38,100.76
		c-0.2,0.32-0.47,0.48-0.53,0.51c-0.78,0.45-2.73,1.83-5.45,3.82h-0.98l-0.58,0h-0.52l-0.06-0.03c-2.82-1.97-4.9-3.42-5.69-3.94
		c-0.08-0.05-0.38-0.25-0.53-0.6c-0.23-0.55-0.02-1.24,0.39-1.51c0.26-0.17,0.56-0.15,0.63-0.15c0.87,0.05,5.78,0.03,12.59-0.02
		c0.39,0.01,0.59,0.16,0.67,0.23C90.78,99.45,90.68,100.27,90.38,100.76z M114.23,82.21c-0.05,0.25-0.67,3.21-2.19,5.84
		c-0.42,0.71-0.77,1.18-0.97,1.43c-0.25,0.32-1.15,1.42-2.71,2.47c-1.37,0.92-2.53,1.32-3.72,1.73c-2.38,0.82-4.02,0.9-4.42,0.91
		c-0.36,0.01-0.66,0.01-0.88,0c-3.3-4.09-6.59-8.19-9.89-12.28c7.99-3.75,15.99-7.5,23.98-11.25
		C113.76,72.09,115.23,77.23,114.23,82.21z"/>
	<g>
		<path class="st1" d="M138.71,113.41l-3.79,6.03c-11.02,0.01-22.03,0.03-33.05,0.05c-0.01-2.03-0.01-4.07-0.02-6.1
			C114.13,113.39,126.42,113.4,138.71,113.41z"/>
		<path class="st1" d="M129.65,127.01l-6.15,7.72c-7.2-0.03-14.41-0.06-21.61-0.1c0.01-2.52,0.03-5.03,0.05-7.54
			C111.18,127.06,120.41,127.04,129.65,127.01z"/>
	</g>
	<path class="st2" d="M51.51,18.64l2.4-0.28c0.06-0.01,0.11-0.03,0.17-0.04C53.19,18.43,52.33,18.53,51.51,18.64z"/>
	<path class="st2" d="M57.45,17.99c-0.13,0-0.26,0-0.38,0l-3.15,0.37c-0.07,0.02-0.15,0.03-0.22,0.05l2.27-0.25L57.45,17.99z"/>
	<path class="st2" d="M109.75,17.95l4.11,0.5c-0.77-0.2-1.63-0.38-2.59-0.46c-0.57-0.05-1.11-0.06-1.62-0.06
		c0.04,0,0.08,0.01,0.13,0.01C109.76,17.95,109.76,17.95,109.75,17.95z"/>
	<g>
		<path d="M143.22,105.18c-0.54,0.91-1.07,1.84-1.6,2.79c-1.03,1.84-2,3.66-2.91,5.44c-12.29-0.01-24.57-0.02-36.86-0.02
			c0.01,2.03,0.01,4.07,0.02,6.1c11.02-0.02,22.04-0.03,33.05-0.05c-1.76,2.52-3.51,5.05-5.27,7.57
			c-9.24,0.02-18.47,0.05-27.71,0.07c-0.02,2.51-0.03,5.03-0.05,7.54c7.2,0.03,14.41,0.06,21.61,0.1c-2.57,2.77-5.14,5.54-7.71,8.32
			c-9.22,0.01-18.44,0.02-27.66,0.03c-0.05-12-0.03-37.43-0.03-37.43C106.47,105.49,124.84,105.33,143.22,105.18z"/>
		<path d="M159.72,32.95c-0.02,2.53-0.05,6.87-0.45,12.42c-0.63,8.7-1.8,15.37-2.14,17.27c-0.33,1.85-1.58,8.53-4.1,17.09
			c-2.52,8.56-5.09,14.8-5.97,16.91c-0.81,1.93-1.53,3.53-2.05,4.67c-3.21-0.03-6.42-0.06-9.63-0.09c0.56-1.01,1.36-2.49,2.23-4.32
			c0.31-0.66,1.51-3.21,3.39-8.37c0.72-1.99,1.66-4.56,2.67-7.93c0.36-1.2,1.82-6.11,3.21-13.21c0.84-4.32,2.01-10.43,2.49-18.5
			c0.4-6.62,0.2-12.24,0-17.62c-0.08-2.33-0.19-4.27-0.27-5.64c-4.84-1.37-9.04-2.41-12.39-3.17c-4.82-1.11-10.7-2.45-18.09-3.44
			l-4.78-0.58c-0.77-0.21-1.64-0.38-2.59-0.46c-0.57-0.05-1.11-0.06-1.62-0.05c-0.16-0.02-0.31-0.03-0.45-0.05
			c-3.42-0.4-5.13-0.6-6.24-0.71c-4.77-0.46-8.27-0.52-14.17-0.61c-3.84-0.06-7.05-0.11-11.5,0c-3.18,0.08-8.09,0.27-14.08,0.79
			l-3.28,0.36l-2.48,0.28c-0.13,0-0.25,0-0.38,0l-3.15,0.37c0.06-0.01,0.11-0.03,0.17-0.04c-0.9,0.11-1.76,0.21-2.58,0.32l2.4-0.28
			c-0.07,0.01-0.14,0.03-0.22,0.05l-0.76,0.08c-2.66,0.35-4.88,0.7-6.66,0.98c-2.94,0.46-12.63,2.02-25.22,5.11
			c-1.75,0.43-3.19,0.8-4.19,1.06c-0.04,1.01-0.1,2.5-0.18,4.32c-0.16,3.95-0.24,5.93-0.27,7.22c-0.06,2.38-0.13,5.67,0.09,9.78
			c0.11,2.01,0.31,4.69,0.71,7.84c0.1,0.93,0.24,2.23,0.45,3.79c0.81,6.18,1.83,11.01,2.4,13.57c0.58,2.54,1.36,5.95,2.77,10.39
			c0,0,2.06,6.51,5.79,14.8c0.67,1.48,1.34,2.82,1.34,2.82c0.24,0.48,0.44,0.86,0.56,1.08c-0.48,0-0.97,0-1.45,0
			c-0.68,0-1.37,0-2.05,0.01c-1.89,0-3.78,0.01-5.66,0.01c-0.86-2.06-1.71-4.11-2.56-6.17c-0.67-1.52-1.58-3.71-2.54-6.4
			c-0.55-1.53-0.94-2.8-1.73-5.32c-1.29-4.12-2.13-7.09-2.37-7.97c-0.63-2.25-0.94-3.37-1.19-4.41c-0.34-1.44-0.78-3.88-1.64-8.7
			c-0.29-1.62-0.38-2.15-0.5-2.93c-0.26-1.74-0.26-2.13-0.59-4.76c-0.22-1.73-0.25-1.8-0.5-3.73c-0.19-1.45-0.33-2.67-0.38-3.14
			c-0.27-2.38-0.33-4.51-0.45-8.65c-0.06-2.19-0.12-4.36-0.12-7.29c0-1.39,0.01-3.21,0.09-5.63c0.07-1.72,0.15-3.11,0.19-3.87
			c0.14-2.31,0.33-4.86,0.33-4.86c0.53-0.13,1.38-0.34,2.41-0.61c1.93-0.5,2.66-0.71,4.18-1.09c1.29-0.33,2.23-0.55,3.28-0.8
			c0.5-0.12,2.55-0.6,5.58-1.27c1.9-0.41,1.84-0.39,4.18-0.89c3.28-0.71,3.27-0.74,4.94-1.08c1.31-0.27,2.93-0.6,5.05-0.94
			c1.84-0.29,1.93-0.26,4.08-0.61c1.88-0.31,2.19-0.4,3.63-0.61c1.36-0.2,2.13-0.27,3.65-0.44c2.72-0.31,3.04-0.38,5.53-0.68
			c0.65-0.08,3.58-0.42,6.67-0.71c4.69-0.43,8.42-0.59,10.63-0.69c1.46-0.06,5.51-0.22,10.81-0.22c5.2-0.01,9.28,0.14,11.33,0.22
			c8.76,0.37,15.53,1.1,17.97,1.38c7.2,0.82,12.21,1.73,20.14,3.17c9.09,1.65,16.34,3.25,20.17,4.1c3.03,0.68,5.58,1.27,7.46,1.71
			c0.03,0.87,0.09,2.19,0.18,3.79c0.16,2.86,0.27,3.93,0.36,5.72C159.74,29.05,159.73,30.62,159.72,32.95z"/>
		<path d="M52.28,18.75c-1.11,0.31-1.94,0.66-2.48,0.92c-0.59,0.29-0.95,0.51-1.15,0.65c-0.12,0.08-0.46,0.31-0.96,0.76
			c-0.93,0.83-1.55,1.61-1.97,2.13c-0.12,0.15-0.42,0.54-0.79,1.08c-0.13,0.19-0.39,0.58-0.71,1.11c-0.28,0.46-0.75,1.25-1.23,2.35
			c-0.15,0.35-0.42,0.97-0.68,1.81c-0.12,0.38-0.4,1.34-0.57,2.62c-0.1,0.71-0.17,1.58-0.15,2.58l0,3.23c0,0.08,0,0.17,0,0.25
			c0.02,2.96,0.86,6.63,3.7,10.79c0.05-0.13,0.13-0.32,0.22-0.55c0.62-1.46,2.7-5.91,10.31-11.61c2.6-1.94,6.38-4.44,11.38-6.69
			c0.05-0.52,0.1-1.27,0.1-2.18c0-0.49-0.02-1.03-0.05-1.39c-0.19-2.3-1.45-4.24-1.7-4.62c-0.49-0.74-1.15-1.73-2.41-2.56
			c-0.34-0.23-1.24-0.77-2.94-1.13c-0.33-0.07-0.67-0.13-0.99-0.17c-0.6-0.08-1.19-0.12-1.77-0.13l-1.48,0.16l-2.27,0.25
			c-0.06,0.01-0.12,0.03-0.18,0.04C53.1,18.55,52.69,18.65,52.28,18.75z"/>
		<path d="M104.39,18.93c0,0-0.68,0.27-1.31,0.7c-1.12,0.77-3.05,3.51-3.67,6.49c-0.27,1.3-0.31,3.17-0.31,3.29
			c0,0,0.01,0.52,0.01,0.52l0.01,0.24l0.59,0.25c0.11,0.08,0.72,0.3,1.19,0.49c0.25,0.1,2.34,0.96,4.62,2.3
			c4.34,2.54,7.86,5.89,8.38,6.4c1.92,1.85,3.21,3.41,4.17,4.58c1.24,1.5,1.99,2.56,2.55,3.44c0.33,0.5,0.59,0.93,0.77,1.25
			c1.57-2.94,3.47-7.61,3.53-13.32c0.02-1.92,0.02-4.6-1.28-7.72c-0.31-0.75-1.35-3.1-3.59-5.47c-1.38-1.46-2.76-2.43-3.79-3.06
			c-0.62-0.28-1.43-0.6-2.4-0.85l-4.11-0.5c0.01,0,0.01,0,0.02,0c-0.04-0.01-0.09-0.01-0.13-0.01c-1.85,0.03-3.35,0.4-4.33,0.7
			C105.08,18.69,104.76,18.78,104.39,18.93z"/>
		<path d="M86.65,105.62v37.32l-14.68,0.15c-3.15-5.81-6.3-11.61-9.46-17.42c0.21,5.8,0.41,11.6,0.61,17.39
			c-4.16,0.04-8.32,0.08-12.49,0.13c0,0,0,0,0,0c-4.12-4.11-7.42-7.88-9.92-10.96c-2.26-2.78-7.24-9.1-12.46-17.95
			c-1.13-1.9-2.02-3.51-2.62-4.62c-0.81-1.56-1.62-3.11-2.43-4.67h9.23c1.3,2.5,3.03,5.58,5.26,8.99c1.81,2.78,3.33,4.81,4.54,6.46
			c1.75,2.35,3.98,5.2,6.68,8.36c-0.08-7.72-0.15-15.45-0.23-23.18h13.46c3.97,7.03,7.95,14.05,11.93,21.08
			c-0.14-7.03-0.28-14.05-0.42-21.08H86.65z"/>
		<path d="M111.96,146.97C111.95,146.97,111.95,146.97,111.96,146.97c-1.3,1.16-3.01,2.68-5.05,4.43c-1.26,1.08-2.89,2.48-4.94,4.14
			c-3.33,2.7-6.11,4.75-7.67,5.88c-5.04,3.65-6.82,4.93-9.24,6.17c-0.82,0.42-1.51,0.74-1.98,0.96c-0.4-0.22-0.97-0.55-1.65-0.96
			c-1.9-1.14-3.41-2.15-5.84-3.84c-2.29-1.6-4.17-2.92-6.81-4.88c-2.85-2.12-4.27-3.18-5.65-4.36c-1.74-1.49-2.59-2.37-5.75-5.13
			c-0.93-0.81-2.53-2.32-2.64-2.43c0-0.01-0.01-0.01-0.01-0.01l0,0c4.44-0.03,8.88-0.06,13.32-0.09c1.95,1.7,4.17,3.48,6.66,5.25
			c2.94,2.08,5.76,3.82,8.37,5.25c3.91-2.39,7.92-5.07,11.97-8.1c0.95-0.71,1.88-1.42,2.79-2.13
			C102.55,147.06,107.25,147.01,111.96,146.97z"/>
		<path d="M53.21,71.04l-0.19,0.42c-0.28,1.2-0.51,2.55-0.67,4.02c-0.25,2.45-0.2,4.65-0.03,6.48c0.12,0.99,0.39,2.41,1.07,3.98
			c1.01,2.36,2.37,3.84,2.83,4.31c0.39,0.4,1.98,1.99,4.53,3.13c0.89,0.39,1.6,0.6,1.8,0.66c1.89,0.54,3.53,0.55,4.6,0.47
			c3.35-4.09,6.69-8.17,10.04-12.26C69.2,78.51,61.21,74.77,53.21,71.04z"/>
		<path d="M89.46,82.29c3.3,4.1,6.59,8.19,9.89,12.29c0.21,0.01,0.51,0.01,0.88,0c0.4-0.01,2.04-0.09,4.42-0.91
			c1.19-0.41,2.35-0.81,3.72-1.73c1.56-1.05,2.46-2.15,2.71-2.47c0.2-0.25,0.55-0.71,0.96-1.43c1.52-2.63,2.14-5.58,2.19-5.84
			c1-4.98-0.47-10.11-0.79-11.16C105.45,74.8,97.46,78.55,89.46,82.29z"/>
		<path d="M89.65,98.83c-6.81,0.04-11.73,0.06-12.59,0.02c-0.07,0-0.37-0.02-0.63,0.15c-0.42,0.28-0.62,0.96-0.39,1.51
			c0.15,0.36,0.44,0.55,0.53,0.61c0.79,0.52,2.87,1.97,5.69,3.94l0.06,0.03c0,0,0.52,0,0.52,0c0,0,0.58,0,0.58,0
			c0.01,0,0.97,0,0.98,0c2.72-1.98,4.67-3.36,5.45-3.82c0.06-0.04,0.34-0.19,0.53-0.51c0.3-0.48,0.4-1.31-0.06-1.7
			C90.24,98.99,90.03,98.83,89.65,98.83z"/>
	</g>
</g>
</svg>
