<?xml version="1.0" encoding="utf-8"?>
<!-- Generator: Adobe Illustrator 27.7.0, SVG Export Plug-In . SVG Version: 6.00 Build 0)  -->
<svg version="1.1" id="Layer_1" xmlns="http://www.w3.org/2000/svg" xmlns:xlink="http://www.w3.org/1999/xlink" x="0px" y="0px"
	 viewBox="0 0 314 217" style="enable-background:new 0 0 314 217;" xml:space="preserve">
<style type="text/css">
	.st0{fill:#D8CCAE;}
	.st1{fill:#191815;}
	.st2{fill:#1E1E1E;}
	.st3{fill:#000B00;}
	.st4{fill:#2B2923;stroke:#000000;stroke-width:2;stroke-miterlimit:10;}
	.st5{fill:#191919;}
	.st6{fill:#0A0000;}
	.st7{fill:#E0E0E0;}
	.st8{fill:#FFFFFF;stroke:#32461E;stroke-miterlimit:10;}
	.st9{fill:#DFDEDE;}
	.st10{fill:#191714;}
	.st11{fill:#FFFFFF;}
	.st12{fill:#A4A1A0;}
	.st13{fill:#0D0205;}
	.st14{fill:#0C7465;}
	.st15{fill:#33ECD1;}
	.st16{fill:#00AD94;}
	.st17{fill:#F30000;stroke:#000000;stroke-width:2;stroke-miterlimit:10;}
	.st18{fill:#B60000;}
	.st19{fill:#000104;}
	.st20{fill:#2B2923;stroke:#000000;stroke-miterlimit:10;}
	.st21{stroke:#181714;stroke-miterlimit:10;}
	.st22{fill:#D9CDAF;}
	.st23{fill:#F30000;}
	.st24{fill:#B000FF;}
	.st25{fill:#000700;}
	.st26{fill:#000200;}
	.st27{fill:#2D2D2D;stroke:#000000;stroke-miterlimit:10;}
	.st28{fill:none;stroke:#000000;stroke-miterlimit:10;}
	.st29{fill:#141414;}
	.st30{fill:#D16F00;}
	.st31{fill:#181714;}
	.st32{fill:#030100;}
	.st33{fill:#262626;}
	.st34{fill:#FF6161;}
</style>
<path class="st0" d="M234.4,230.7"/>
<path class="st1" d="M264.6,250.9"/>
<path class="st2" d="M36.6,248.7"/>
<path class="st3" d="M131,39c0,0,7.4-8.5,3.5-20.4l-1.6,1.1c0,0,1.1-5.5-2.8-10.2l-0.7,2.1c0,0-7.5-6.2-17.3-2
	c0.3-1.2,0.6-2.5,0.6-2.5s-14.4,7.4-11.3,14.8c2.6,0.7,5.2,1.7,7.6,2.8c4.9,2.3,8.1,7.1,8.3,12.5l0,0l2.4-1.8c0,0,2.5,4.7,1.8,6.1"
	/>
<path class="st3" d="M151.8,68.1c0,0,0.2-1.4,3.4-2.4c-6.4-9.7-19.4-11-19.4-11"/>
<g>
	<path d="M150.9,68.6c0,0,5-10,28-11c-4,6-4,6-4,6s7-1,11,1c2-3,0-8,25-12s34,5,34,5s14,50-21,54s-35,2-35,2s-4,16-29,13
		s-23-13-23-13S127.9,90.6,150.9,68.6z"/>
	<path class="st4" d="M152.9,73.6"/>
	<path class="st5" d="M167.4,65.1c0,0-11,0-22,21c0-3,0-6.6,0-6.6s-10,19.9,0,29.2c-4-2.7-7-6.7-7-6.7s-3,18,20,17c22-5,24-10,24-10
		l7-6c0,0-1,7,3,7s44,0,48-15s5-33-7-36s-31-4-37,1s-6.4,5-5.7,11c-3.3-3-4.3-3-4.3-3l-1,4l-2-5c0,0-8-3-16,4
		c-1,0.7-2.4,2.5-2.4,2.5S165.4,69.1,167.4,65.1z"/>
</g>
<path class="st6" d="M63.4,104.7c0,0-21,12-23,26c5-3,4-2,4-2s-2,1-1,14s11,70,67,52c25-15,34.5-20.5,34.5-20.5
	S241.9,71.2,63.4,104.7z"/>
<path class="st5" d="M48.1,123.2c0,0,6.7-8.5,11-7.5s93.6-7,93.6-7s11.4,6.2,10.6,18.1c-0.9,11.9-12.2,35.9-12.2,35.9l-28,17.2
	l-41.3,5.3l-30.2-32.5c0,0-6-15.1-2.5-22c3.5-7,5.7-7.5,5.7-7.5S52.1,121.7,48.1,123.2z"/>
<path class="st7" d="M94.2,126.3c0,0,50.9-21.1,58.5-18.1c7.6,3,12.4,7,12.5,16s-8.7,32.6-16.3,39.3S130.7,177,130.7,177l-14.9,4.7
	h-27l-20.6-13.6L94.2,126.3z"/>
<g>
	<path class="st3" d="M119.4,128.7c0,0,11,0,24-15c8.1-10.2,12.1-25.4,13.9-34.2c0.7-3.7-2.1-11.1-2.2-11.3
		c-0.4-0.5-0.8-1.1-1.2-1.6c-2.5-2.9-6-6.3-10-8.5c-0.3-0.2-0.6-0.3-0.9-0.5c-0.3-0.1-0.6-0.3-0.9-0.4c-0.5-0.2-1-0.4-1.5-0.6
		c-0.4-0.1-0.7-0.2-1.1-0.4c-0.7-0.2-1.3-0.3-2-0.5c0,0-3-17-6-22c0,0-9-23-35-22l2-4c0,0-10-1-17,2c0-2,2-5,2-5s-6,0-20,5
		s-25,14-30,22s-11,24-11,24l-2,14l4-4c0,0-3.1,21,2,28c4-8,6-8,6-8s3,26,22,34l8.2,4.6c7.2,2.9,14.5,5.3,22.1,7l-0.3-1.6"/>
	<path class="st8" d="M138.3,59.5c-1.6-0.8-3.1-1.5-4.5-2.1c-0.5-0.2-1-0.4-1.5-0.6c-4-49-44-40-44-40s-0.1-1,2-4
		c-6,0-17,4.9-17,4.9s0-1.9,1-5.9c-37,8-43,42-43,42c-4,2-3,29-3,29s3-3,9-5c-0.8,10.3,3,26,15.6,33c0.3,0.2,0.5,0.5,0.8,0.8h-0.1
		c0,0,0.3,0.3,0.8,0.7c0.9,0.8,1.9,1.5,3,2.1c4.8,3.2,15,9.3,26.9,10.5c-0.8-1.4-2.7-3.4-3-4l3.9,0.6c12.7,2.7,25.8,2.8,38.6,0.5
		c0.2,0,0.3-0.1,0.5-0.1c18-5,27-31,29-43C154.9,69.5,145.8,63.2,138.3,59.5z"/>
	<g>
		<path class="st9" d="M63.2,54.5c-1.2,3.6-2.2,11.7,8.4,20c2.6,2.1,5.9,3.2,9.4,3.2c4.5,0,10.3-2,18.9-12.5c0.9-1.1,0.4-2.7-1-3.1
			l-33.1-9C64.7,52.8,63.5,53.5,63.2,54.5z"/>
		<path class="st10" d="M62.4,53.4c-1,3.3-1.8,11,8.3,19.1c2.5,2,5.6,3.2,8.8,3.2c4.2,0.1,9.5-1.7,17.2-11.4c0.8-1,0.3-2.5-1-2.9
			l-30.8-9.3C63.8,51.9,62.7,52.4,62.4,53.4z"/>
		<path class="st9" d="M89.4,63.9c-0.8,1-1.5,1.8-2.2,2.4c-1.6,1.3-2.8,1.6-3.8,1.6c-1.1,0-2.2-0.4-3-1.1c-3.5-2.8-3.2-5.5-2.9-6.6
			c0.1-0.3,0.5-0.5,0.8-0.4l1,0.3l9.8,2.9C89.5,63,89.7,63.5,89.4,63.9z"/>
		<path class="st11" d="M89.4,63.9c-0.8,1-1.5,1.8-2.2,2.4c-0.7,0.3-1.2,0.3-1.8,0.3c-1.1,0-2.2-0.4-3-1.1c-2.6-2.1-3.1-4.1-3.1-5.5
			l9.8,2.9C89.5,63,89.7,63.5,89.4,63.9z"/>
		<path class="st9" d="M99.9,56.7l-15.6-7.9l12.6,3.9c0.7,0.2,1.2,0.7,1.5,1.2L99.9,56.7L99.9,56.7z"/>
		<path class="st12" d="M83,48.1l12.9,3.2c0.7,0.2,1.2,0.6,1.6,1.2l1.6,2.7L83,48.1z"/>
	</g>
	<g>
		<path class="st9" d="M126,40.8c2.5,1.3,7,5,4.8,13.8c-0.6,2.2-1.9,4.1-4,5.6c-2.7,1.9-7.1,3.3-17.3,1.6c-1.1-0.2-1.6-1.2-0.9-2
			l15.2-18.5C124.2,40.6,125.2,40.4,126,40.8z"/>
		<path class="st10" d="M125.9,39.9c2.2,1.3,6.4,4.9,4.4,13.2c-0.5,2.1-1.7,4-3.6,5.3c-2.4,1.8-6.4,3.2-15.8,1.4
			c-1-0.2-1.4-1.2-0.9-1.9l13.8-17.7C124.3,39.7,125.2,39.5,125.9,39.9z"/>
		<path class="st9" d="M115,56.6c1,0.2,1.8,0.3,2.4,0.3c1.6,0,2.4-0.3,3-0.8c0.7-0.5,1.1-1.1,1.3-1.8c0.7-2.9-0.8-4.1-1.5-4.6
			c-0.2-0.1-0.6-0.1-0.7,0.1l-0.4,0.6l-4.3,5.6C114.5,56.2,114.7,56.6,115,56.6z"/>
		<path class="st11" d="M115,56.6c1,0.2,1.8,0.3,2.4,0.3c0.5-0.1,0.9-0.3,1.2-0.6c0.7-0.5,1.1-1.1,1.3-1.8c0.5-2.2-0.2-3.4-0.9-4.1
			l-4.3,5.6C114.5,56.2,114.7,56.6,115,56.6z"/>
		<path class="st9" d="M105.3,57.4l5.4-10.6l-5.6,7.3c-0.3,0.4-0.4,0.8-0.3,1.3L105.3,57.4L105.3,57.4z"/>
		<path class="st12" d="M111.1,45.9l-6.1,7c-0.3,0.4-0.4,0.8-0.4,1.3l0.3,2L111.1,45.9z"/>
	</g>
	<g>
		<path class="st13" d="M133.8,47.6c-0.5,0.5-0.7,1.1-0.4,1.8c1.4,3.5,2.8,12.3-3.5,15c-1.8,0.8-4.5,2.1-7.7,3.7
			c-1.3,0.7-2.9,0.6-4.1-0.2c-2.5-1.7-4.9-3.7-5.4-1.8l-2.4,7c-0.3,0.9-0.9,1.7-1.8,2.1c-4.4,2.4-7.7,4.2-7.7,4.2l-18,9
			c0,0-7,1.4-11.5-0.8c-3.8-1.9-7.5-16.2-7.5-16.2h-2c0,0-4.5,0.6-6-4.1s0-6.9,0-6.9S88.2,37.6,131.9,39c1.8,0.1,3.3,1.4,3.4,3.2
			C135.6,44.7,135.4,46.1,133.8,47.6z"/>
		<g>
			<path class="st14" d="M68.8,58.9c0,0,32-17,59-15c1,5,2,13,2,13l-1,2.8l-7,3.2l-7.5-1.8l-1.5-2.2l-4,3l-5,10l-19.7,9h-6.3h-4.4
				l-4-6.6l-2.1-10.9L68.8,58.9z"/>
			<polygon class="st15" points="71.3,73.4 83.2,52.4 101.2,47.2 84.2,80.9 77.3,83.4 72,80.6 			"/>
			<polygon class="st16" points="105,45.8 90,78.2 98.5,73.7 110.7,45.2 			"/>
			<path class="st17" d="M132,45c0.6-0.9,0.6-2-0.7-2.6c-39.5-2.5-65.1,15-71.7,19.1c-0.9,0.6-2,1.5-1.8,2.6c1,5.8,6,2.8,6,2.8
				c2-1,2,1,2,1l4.4,13.2c0.1,0.3,0.2,0.6,0.4,0.8c0.7,1.2,3.2,4.3,8.7,3.5c3.3-0.5,14.9-6,26.3-11.8l0,0c1-0.5,1.6-1.5,1.8-2.6
				c0.3-1.8,3.4-7.7,4.2-9.5c0.9-1.9,0.9-2.3,2.4-0.7c0.2,0.2,0.4,0.4,0.6,0.5l3.6,2.8c1.3,1,3.1,1.2,4.5,0.4
				c2.8-1.5,5.1-2.9,6.6-3.8c1.4-0.9,2.3-2.4,2.4-4c0.1-2.2-0.2-5.3-0.6-7.5C130.9,47.7,131.1,46.2,132,45z M108.9,58.2
				c-2.6,4.2-4.4,8.2-4.9,9.3c-0.1,0.3-0.3,0.6-0.5,0.9c-0.5,0.7-1.7,1.9-4.1,3.4c-1.9,1.2-4.5,2.5-8.1,3.9c-0.1,0-0.2,0.1-0.3,0.1
				c-1.9,0.7-3.6,1.3-5,1.9c-3.6,1.3-5.6,2.1-6.7,2.6c-1.4,0.6-3,0.2-4-0.8s-2.3-3-3.6-6.3c-0.4-1.1-0.8-2.2-1.2-3.6
				c-0.6-1.8-0.9-3.7-0.8-5.5c0-0.7,0.1-1.2,0.1-1.7c0.1-0.9,0.6-1.7,1.3-2.1c1.7-1.1,5.6-3.4,11.3-5.9c4.9-2.1,11.2-4.4,18.6-6
				c1.1-0.2,2.3-0.5,3.5-0.7c1.9-0.4,3.8-0.7,5.8-0.9c4.8-0.6,10-1,15.5-0.8c0.2,0,0.4,0.1,0.5,0.3c1.8,4.3,2.5,7.4,2.7,9.2
				c0.1,1-0.3,1.9-1,2.5c-1.7,1.3-3.2,2.1-5.6,2.7c-0.7,0.2-1.3,0.4-2,0.5c-1.8,0.3-5.2-3.8-5.2-3.8S111.9,53.2,108.9,58.2z"/>
		</g>
		<path class="st18" d="M60.8,63.6l4.7-2.9v3.4l-3.2,1.6C62.3,65.7,59.8,66.8,60.8,63.6z"/>
		<path class="st18" d="M127.8,44.1l0.9,3.3c0,0,1.7-1.8,1.7-3.1S127.8,44.1,127.8,44.1z"/>
	</g>
	<g>
		<path class="st19" d="M103.1,75.9c-1.2,1.3-0.6,3.4,1.1,3.9c4.4,1.4,14.2,4.2,17.6,3c3.2-1.2,7.8-9.8,9.9-14.2
			c0.7-1.4-0.2-3.3-1.8-3.4c-3.5-0.3-8.7-0.1-11.4,2.7c-0.3,0.3-0.8,0.5-1.3,0.5C114.3,68.6,106.3,72.6,103.1,75.9z"/>
		<path class="st20" d="M106.6,77.2c0,0,6.1-5.5,9.2-3.2s2,5.6,2,5.6L106.6,77.2z"/>
		<path class="st20" d="M129.1,68.4l-3.2,6.7C125.9,75.1,124.3,70.5,129.1,68.4z"/>
		<path class="st20" d="M167.3,42.9"/>
	</g>
	<path class="st11" d="M135.5,58.1c0,0,7.9-0.4,12.9,3.6l2.8,2.6c0,0-4.8-1.5-5.8-0.6c3-0.1,8.3,2.8,8.2,11.4"/>
	<path class="st21" d="M137.5,68.4c0,0,11.1,7.9,1.6,16.1c-7.4,5.2-9.2,5.7-10.9,5.3c-0.4,3.4-10.6,12.2-14.1,12.3
		c-2.9,0.1-11.9-0.2-17-0.7c-1.6-0.2-3.2-0.2-4.7-0.1c-3.1,0.2-6.5-1-7.1-1.6c-0.9-0.9-0.7-1.1-0.7-1.1s-2.2-3.2,2.2-4.7l-0.7,1.5
		c-0.4,0.8-0.5,1.7-0.3,2.5s0.8,1.6,2.1,1.5s2.4-0.1,3.1,0c1.3,0.1,2.6,0.1,3.9,0.1c2.9,0,7.3-0.1,8.4,0.1c2.1,0.2,5.9,0.5,8.5,0.3
		s19.8-5.6,11.6-17.1c3,2.6,4.4,4.3,4.4,4.3s3.3,0.8,7-1.8C138.5,82.6,145,78.1,137.5,68.4z"/>
	<path class="st7" d="M122.1,110.2c0,0-32.3,12.7-55.4-11.6l3.8,12.7c0,0-23.6-10-23.8-28c0-4.3-0.9-8.6-1.9-12.8
		c-0.6-2.3,3.6-0.7,3.6-0.7s-5.5-23.1,13.8-35.3C48.5,24.2,31.5,54.2,31.5,54.2s-7.2,25.5-3.2,28.5c5-3,7-4,7-4s-2.5,37.5,51,47
		c-3.5-3.5-3-5-3-5s21.9,6.6,37.3,2.3s9.2-16.1,9.2-16.1L122.1,110.2z"/>
</g>
<path class="st22" d="M228.4-119.3"/>
<g>
	<path d="M208.1,19.7l13.5,87.6c0,0,41.1,7.6,68.9-1.1c-1.3-20.7,4.7-93.2,4.7-93.2S250.5,30.1,208.1,19.7z"/>
	<path class="st23" d="M215.2,26.4l11.4,73.9c0,0,34.7,6.4,58.1-0.9c-1.1-17.5,4-78.6,4-78.6s-27.4,10.5-57.6,8.1
		c-2.1-0.2-4.2-0.4-6.3-0.7C221.5,27.7,218.4,27.1,215.2,26.4z"/>
	<path class="st24" d="M223.7-0.3"/>
	<ellipse transform="matrix(0.9975 -7.119195e-02 7.119195e-02 0.9975 -0.4593 17.916)" cx="251.1" cy="15.4" rx="46.5" ry="8.5"/>
	<path class="st11" d="M213.1,16.8c0,0,45.6-10.8,76.6-4c-3.4,3-12.9,8.4-35.2,9.7C231.9,24.2,213.6,21.2,213.1,16.8z"/>
	<path class="st18" d="M237.9,63.7c0,0,1.6,7.6,2.6,11.2c0.9,3.6,3.4,17.1,3.4,17.1l41-0.8l-0.1,9.2c0,0-20.8,6.2-57.8,1.3
		c-2.1-10.3-10.5-50.1-10.5-50.1s16.6,2.1,20.3,1.6C237.8,61.7,237.9,63.7,237.9,63.7z"/>
</g>
<path class="st22" d="M252.8,77.4"/>
<g>
	<path class="st25" d="M207.1,39.7c0,0,24-4,30,5c2,6,4,15-4,19c-8,2-17.9,0-17.9,0l1.2,8c0,0-9.7,1-12,0s-10.3-5-7.3-21
		C199.1,41.7,207.1,39.7,207.1,39.7z"/>
	<path class="st5" d="M221.6,44.2h-11c0,0-9,1-9,9s1.2,16,10.2,15c2-2-1.7-12.7-1.7-12.7s5.4,5.7,12.4,5.7s11-3,11-3s5-7-1-12
		C226.6,43.2,221.6,44.2,221.6,44.2z"/>
</g>
<g>
	<path class="st26" d="M292.2,33.2c0,0-7.6-3.2-19.3,3.1c-7.1,3.8-12.4,10.4-13.9,18.3c-1.4,6.8,0.4,13.2,12.2,12.6c-6,0-8-1-9,3
		s-2,11,5,13c-3,3-6,11,0,16c-2,3-4,7,2,10c6,1,28-7,28-7s12-6,4-17c0,0-4-5-8-5c5-1,12.9-3.7,15-9.4c2-5.6,2-13.6-7-16.6
		c1-4,6-10-1-17L292.2,33.2z"/>
	<path class="st5" d="M274.2,63.2c0,0,9.6,0,21.4-10.5c2-1.8,3.4-4.3,3.6-7c0.2-2.4-0.5-4.9-4.2-6.8c-2.6-1.3-5.5-1.8-8.4-1.6
		c-5.6,0.4-12.3,2-16.4,6.9c0,0-6,5-6,9c0,3.8-2.6,10.2,4.3,10.1l3.9-0.1C272.4,63.2,274.2,63.2,274.2,63.2z"/>
	<path class="st5" d="M297.2,57.2c0,0-11,11-29,12c-0.8,1.1-1.8,2.8-2.2,4.5c-0.2,0.7-0.2,1.4-0.1,2.1c0.3,2.1,2.2,3.9,7.3,4.3
		c9.8,0,22.6-3.7,28.2-7.8c1.6-1.2,2.9-3,3.2-5c0.2-1.2,0.1-2.6-0.5-4.1C303.1,61.3,301.1,59.2,297.2,57.2z"/>
	<path class="st5" d="M291.7,83.6c-0.9-0.2-1.8-0.3-2.8-0.1c-3.2,0.5-11.5,1.8-14.7,1.8c-4,0-5,2-5,2s-2.3,1.9-2.1,4.2
		c0.1,1.3,1.1,2.7,4.1,3.8c5.4,2,12.2,2.2,16,2.2c1.8,0,3.6-0.4,5.3-1.2l0,0c5.7-2.5,5.4-10.8-0.6-12.6
		C291.9,83.6,291.8,83.6,291.7,83.6z"/>
	<path class="st27" d="M270.2,101.2c0,0,5,3,16,1c-4.6,2.3-7.8,3.6-9.8,4.3c-1.9,0.7-4,0.6-5.7-0.4
		C269.2,105.2,268.2,103.7,270.2,101.2z"/>
	<path class="st28" d="M290.2,97.2"/>
	<path class="st29" d="M263.7,57.8c0,0,18.4,8.2,35.5-13.5c0.1,5.1-3.8,10.4-10.6,13.7c-0.6,0.3-1.2,0.6-1.8,0.9
		c-5.5,2.7-7.9,3.4-7.9,3.4S261,67,263.7,57.8z"/>
</g>
<path class="st30" d="M64.5,107.3"/>
<path class="st31" d="M114.4,81"/>
<path class="st31" d="M40.8,58.5"/>
<path class="st31" d="M252.6,17.9"/>
<path class="st31" d="M61.3,93.1"/>
<g>
	<path class="st32" d="M54,145.2L54,145.2c0,0-9.6-25.3-33-18.2c-23.4,7-9.1,27.4-9,27.5l0,0c0,0,4.1,4.8,9.8,5.7
		c4.4,0.7,8.6,4.6,9.3,9c0.4,2.8,0.4,5.1,1.2,8.4c1.2,5.4-0.4,19.4,22.6,30.2c2.6,0.8,6.7,2,9.3,2.8c15,2.3,21.8,1.1,24.2,0.5
		c1-0.3,1.9-0.5,2.9-0.8c4.3-1.1,14.8-4.1,20.8-9.6l0,0c6.9-5.1,17.7-12.1,27.5-13.1l0,0c7.8-0.9,15.9-9.9,12.9-20l0,0
		c-0.1-0.1-0.1-0.2-0.2-0.2c-5.2-6.6-13.4-10.3-21.8-9.7c-4.9,0.4-10.4,1.9-15.6,6l0,0c0,0-7.9-4.7-13.2-1.2l0,0
		c1.5-1.6,0.5-5-3.5-5.3l0,0c1.3-0.6,7.3,1.1,15.7-7.5l0,0c2.2-5.5,6.9-16.6-15.9-24.1l0,0c-12.7,0.1-23.4,0.7-37.9,16l0,0
		C55.6,145.2,54,145.2,54,145.2z"/>
	<path class="st2" d="M148.4,171.8c-0.1,7.4-7.1,11-12.9,12c-0.7,0.1-1.3,0.2-1.9,0.2c-0.7,0.1-1.4,0-2.2-0.1
		c-5.5-0.4-9.9,3.2-18.3,8.2c-0.2,0.1-0.5,0.3-0.7,0.5c-5,4.3-10.1,7.6-16.7,10.3c-12.5,5.2-26.6,5.7-39.1,0.4
		c-20-8.4-19.4-23.7-19.9-29.7c0.1-1.1,0-2.1-0.1-3.1c-0.7-6.4-4.9-11.9-10.7-14.6c-0.9-0.4-1.9-0.6-3-0.9c-1.5-0.3-3-0.6-4.5-1.6
		c-1.1-0.7-2.1-1.8-3-3c-1.5-2.1-2.6-4.8-3.1-7.2c-2.2-9.9,10-12.6,16.2-13.1c1-0.1,2,0,3,0.2c7.5,1.5,12.6,7.9,15.7,13
		c0.9,1.5,1.6,3,2.2,4.2c0.7,1.6,2.3,2.6,4,2.6c0.2,0,0.4,0,0.7-0.1c0.6-0.1,1.3-0.3,1.8-0.7L60,147c0.2-0.1,0.4-0.3,0.6-0.4
		c1.4-1.3,7.9-7.1,15.9-12.8c3.4-2.4,7.4-4.2,11.5-4.9c12.1-2.2,19.3,3.7,23.2,8.9c2.2,3,1.5,3.5,1.2,5c-2.7,13.3-19.2,11.2-22,11.9
		c-3.1,0.7-10.9,5.3-15,8.1c7.3-4.5,21.7-5.9,22.6-2.5c1,3.5-0.6,5.1-5.3,9.8c5.1-4.1,12.9-7.3,16.4-5.1s0.3,7-1.2,10.1
		c14.8-19.4,29.7-13.4,29.7-13.4s6.7,2.2,10.1,7.7C148.1,170.1,148.4,171,148.4,171.8z"/>
	<path class="st29" d="M135.4,183.9c-0.7,0.1-1.3,0.2-1.9,0.2c-0.7,0.1-1.4,0-2.2-0.1c-5.5-0.4-9.9,3.2-18.3,8.2
		c-0.2,0.1-0.5,0.3-0.7,0.5c-5,4.3-10.1,7.6-16.7,10.3c-12.5,5.2-26.6,5.7-39.1,0.4c-20-8.4-19.4-23.7-19.9-29.7
		c0.1-1.1,0-2.1-0.1-3.1c-0.7-6.4-4.9-11.9-10.7-14.6c-0.9-0.4-1.9-0.6-3-0.9c3.7-0.6,22.5-2.7,30.4,12.7
		c3.2,6.2,9.1,22.4,16.1,21.8c2.2-0.2,4.1-2.8,6-3c6.6-0.8,5.1,3.1,11,6c6.4,3.2,24.9-6.8,33.4-9.3
		C126.2,181.4,131.5,182.3,135.4,183.9z"/>
	<path class="st33" d="M47.1,143.8c0,0-16.7-6-20.7-2s-5,11.1-11,9l0,0c-1.5-2.1-2.6-4.8-3.1-7.2c-2.2-9.9,10-12.6,16.2-13.1
		c1-0.1,2,0,3,0.2C38.9,132.2,44.1,138.6,47.1,143.8z"/>
	<path class="st29" d="M53.3,150.5"/>
</g>
<path class="st3" d="M24.4,74.7c0,0-16-12-15-32l3,1c0,0-4-8,0-17l2,3c0,0,9-12.6,26-10.3c-1-1.7-2-3.7-2-3.7S63.7,21.1,62,33.9
	c-3.7,2.2-7.3,4.8-10.6,7.6c-6.7,5.5-9.6,14.3-7.7,22.8l0,0l-4.5-1.8c0,0-3.9,4.2-0.3,10.2"/>
<path class="st33" d="M52.4,118.8c0,0-3.5,2.9-4.3,4.4c1.3-0.5,5.3-1.5,6.8,0c-3.5,2.5-7.1,9-6.8,12.3c2.3,2.2,5.5,8.3,5.9,9.8
	s-0.1-18.4,8.7-21C61.4,123.7,52.4,118.8,52.4,118.8z"/>
<path class="st33" d="M157.2,79.5l4.9-4.4v5.2c0,0,13.6-10.7,18.4-9.6c4.8,1.1,4.8,2.1,4.8,2.1s1-0.3-2-5.7
	c-9-1.3-11.7,0.3-18.4,6.5c0.4-1.8,0.4-6.2,2.4-8.5c-6,0.7-11.3,6.1-11.3,6.1S158.1,76.3,157.2,79.5z"/>
<path class="st33" d="M229.4,44.9c0,0-14.4-5.3-23.2,0.8c-8.8,6-3.8,15.7-3.8,15.7s1-9.7,6.5-12.2c-0.5,2.5,1,2.3,1,2.3
	S210.4,43.2,229.4,44.9z"/>
<path class="st29" d="M288.4,78.1c7.6-2.4,12.9-5.7,12.9-5.7s4-2.7,3.2-7.1c-2.3,1.9-4.6,3.5-6.8,4.9c-1.2-1.5-2-3.4-2-3.4l-4.4,3.3
	c0,0-5,5-20.7,5.9c-1.7,0.1-2.9,0.2-3.5,0.3c-0.8-0.2-1.2-0.3-1.2-0.3s0.5,5.8,12.9,4.3c3-0.4,5.8-1,8.4-1.7"/>
<path class="st29" d="M277.2,93.1l-9.9-0.8c0,0-2.6,2.8,13.2,5.1c15.9,2.3,16.1-6.7,16.1-6.7s-3.9,3.7-8.1,3.8
	c-4.2,0.2-5.6,0.1-5.6,0.1l0.4-2.9l0,0C281.5,92.8,279.4,93.3,277.2,93.1z"/>
<path class="st7" d="M109.3,27.3c0,0-11.8-7-25.8-7.1c5.4,3.2,5.3,5.3,5.3,5.3s-12.2-4.7-22.1-3.7c9.2,2.2,25.1,10.9,25.1,10.9
	s5-3.7,2-7.6c6.4,0.3,20.9,5.2,20.9,5.2L109.3,27.3z"/>
<path class="st3" d="M54.4,33.7c0,0-20.6,12.8-15.8,21.4"/>
<path class="st2" d="M43.4,25.7v-3.9c0,0,17,6.2,14,9.9c-2.5,3-24.6,15.8-17,27c-5.4-3.8-4.7-3.6-4.7-3.6s-6.5,7.4-3.9,11.5
	c-0.4,0.1-10.6,0.5-15.5-10.1c-1.5-3.2-2-6.8-1.8-10.3c0.2-3.8,0.6-9.1,0.6-9.1l3.5,1.8c0,0-4.2-5.1,6.8-12.1
	C25.4,26.7,37.4,18.7,43.4,25.7z"/>
<path class="st29" d="M109.9,13.6c0,0,18.5,5.1,21.5,20.1c1-3,1.4-10.1,1.4-10.1l-2.6,1.3c0,0,0.7-7.3,0-9.3
	c-1.7,1.1-2.1,1.3-2.1,1.3s1.2-2.6-3.1-4.8c-4.6-2.4-11.7-0.4-11.7-0.4S110.3,12.4,109.9,13.6z"/>
<path class="st2" d="M24.6,15.7"/>
<path class="st33" d="M14.5,47.8l4,4.2c0,0-1.9-8.9,0-9.1c0.9,2.8,4.4,1.5,4.4,1.5s-3.4-9.7,0.6-12.7s11-8,20-6
	c-2-1-2.9-5.8-14.4-0.9c-9.6,4.9-12.1,8.1-10.3,14c-2.2-1.1-3.5-1.8-3.5-1.8L14.5,47.8z"/>
<path class="st7" d="M220.3,20.4c0,0,33.2-8.2,61.2-4C271.2,19.6,253.3,25.2,220.3,20.4z"/>
<path class="st34" d="M265.3,33.6c-14.1,6.7-17.1,33.3-17.1,33.3l-4.9-31.1C243.4,35.8,257.6,37.1,265.3,33.6z"/>
<path class="st29" d="M213.9,79.9l-4,16.9c-0.2,0.9-1,1.4-1.9,1.3l-16.4-1.6l0,0c-3.6,1.6-3.1,1.9-2.7,5.8c0,0,0,0.1,0,0.2l0.1,3.2
	c0,0.4-0.3,0.8,0,1.1l0.5,0.1c-1.7,4.2,2.1,3.2,6.3,2.9c6.3-0.4,15.9,0.2,23.3-1.9l1-0.3c0.9-0.2,1.4-1.1,1.3-2l-4-25.7
	C217,78.2,214.3,78.1,213.9,79.9z"/>
</svg>
